<?xml version="1.0" encoding="UTF-8" standalone="no"?>
<!DOCTYPE svg PUBLIC "-//W3C//DTD SVG 1.1//EN"
 "http://www.w3.org/Graphics/SVG/1.1/DTD/svg11.dtd">
<!-- Generated by graphviz version 2.47.0 (20210316.0004)
 -->
<!-- Title: dependencies Pages: 1 -->
<svg width="504pt" height="284pt"
 viewBox="0.00 0.00 504.00 284.00" xmlns="http://www.w3.org/2000/svg" xmlns:xlink="http://www.w3.org/1999/xlink">
<g id="graph0" class="graph" transform="scale(1 1) rotate(0) translate(4 280)">
<title>dependencies</title>
<polygon fill="white" stroke="transparent" points="-4,4 -4,-280 500,-280 500,4 -4,4"/>
<text text-anchor="start" x="227.01" y="-42.4" font-family="Times-12" font-weight="bold" font-size="14.00">Legend</text>
<polygon fill="#ffffb3" stroke="transparent" points="14,-10 14,-30 34,-30 34,-10 14,-10"/>
<text text-anchor="start" x="37.63" y="-15.4" font-family="Times-12" font-size="14.00"> &#160;Declarations</text>
<polygon fill="#8dd3c7" stroke="transparent" points="127,-10 127,-30 147,-30 147,-10 127,-10"/>
<text text-anchor="start" x="150.73" y="-15.4" font-family="Times-12" font-size="14.00"> &#160;Module</text>
<polygon fill="#80b1d3" stroke="transparent" points="213,-10 213,-30 233,-30 233,-10 213,-10"/>
<text text-anchor="start" x="236.78" y="-15.4" font-family="Times-12" font-size="14.00"> &#160;Bootstrap</text>
<polygon fill="#fdb462" stroke="transparent" points="310,-10 310,-30 330,-30 330,-10 310,-10"/>
<text text-anchor="start" x="333.67" y="-15.4" font-family="Times-12" font-size="14.00"> &#160;Providers</text>
<polygon fill="#fb8072" stroke="transparent" points="406,-10 406,-30 426,-30 426,-10 406,-10"/>
<text text-anchor="start" x="429.73" y="-15.4" font-family="Times-12" font-size="14.00"> &#160;Exports</text>
<g id="clust1" class="cluster">
<title>cluster_VideoCacheModule</title>
<polygon fill="none" stroke="black" stroke-dasharray="1,5" points="71,-70 71,-268 425,-268 425,-70 71,-70"/>
</g>
<g id="clust3" class="cluster">
<title>cluster_VideoCacheModule_imports</title>
<polygon fill="none" stroke="black" points="279,-78 279,-130 417,-130 417,-78 279,-78"/>
</g>
<g id="clust4" class="cluster">
<title>cluster_VideoCacheModule_exports</title>
<polygon fill="none" stroke="black" points="186,-208 186,-260 332,-260 332,-208 186,-208"/>
</g>
<g id="clust6" class="cluster">
<title>cluster_VideoCacheModule_providers</title>
<polygon fill="none" stroke="black" points="79,-78 79,-130 271,-130 271,-78 79,-78"/>
</g>
<!-- AppConfigModule -->
<g id="node1" class="node">
<title>AppConfigModule</title>
<polygon fill="#8dd3c7" stroke="black" points="409.05,-122 406.05,-126 385.05,-126 382.05,-122 286.95,-122 286.95,-86 409.05,-86 409.05,-122"/>
<text text-anchor="middle" x="348" y="-99.8" font-family="Times,serif" font-size="14.00">AppConfigModule</text>
</g>
<!-- VideoCacheModule -->
<g id="node2" class="node">
<title>VideoCacheModule</title>
<polygon fill="#8dd3c7" stroke="black" points="323.24,-187 320.24,-191 299.24,-191 296.24,-187 194.76,-187 194.76,-151 323.24,-151 323.24,-187"/>
<text text-anchor="middle" x="259" y="-164.8" font-family="Times,serif" font-size="14.00">VideoCacheModule</text>
</g>
<!-- AppConfigModule&#45;&gt;VideoCacheModule -->
<g id="edge1" class="edge">
<title>AppConfigModule&#45;&gt;VideoCacheModule</title>
<path fill="none" stroke="black" d="M305.05,-122.11C305.05,-122.11 305.05,-140.99 305.05,-140.99"/>
<polygon fill="black" stroke="black" points="301.55,-140.99 305.05,-150.99 308.55,-140.99 301.55,-140.99"/>
</g>
<!-- VideoCacheService  -->
<g id="node3" class="node">
<title>VideoCacheService </title>
<polygon fill="#fb8072" stroke="black" points="324.17,-252 193.83,-252 193.83,-216 324.17,-216 324.17,-252"/>
<text text-anchor="middle" x="259" y="-229.8" font-family="Times,serif" font-size="14.00">VideoCacheService </text>
</g>
<!-- VideoCacheModule&#45;&gt;VideoCacheService  -->
<g id="edge2" class="edge">
<title>VideoCacheModule&#45;&gt;VideoCacheService </title>
<path fill="none" stroke="black" stroke-dasharray="5,2" d="M259,-187.11C259,-187.11 259,-205.99 259,-205.99"/>
<polygon fill="black" stroke="black" points="255.5,-205.99 259,-215.99 262.5,-205.99 255.5,-205.99"/>
</g>
<!-- VideoCacheService -->
<g id="node4" class="node">
<title>VideoCacheService</title>
<ellipse fill="#fdb462" stroke="black" cx="175" cy="-104" rx="87.94" ry="18"/>
<text text-anchor="middle" x="175" y="-99.8" font-family="Times,serif" font-size="14.00">VideoCacheService</text>
</g>
<!-- VideoCacheService&#45;&gt;VideoCacheModule -->
<g id="edge3" class="edge">
<title>VideoCacheService&#45;&gt;VideoCacheModule</title>
<path fill="none" stroke="black" d="M228.67,-118.43C228.67,-118.43 228.67,-140.89 228.67,-140.89"/>
<polygon fill="black" stroke="black" points="225.17,-140.89 228.67,-150.89 232.17,-140.89 225.17,-140.89"/>
</g>
</g>
</svg>
