<?xml version="1.0" encoding="UTF-8" standalone="no"?>
<!DOCTYPE svg PUBLIC "-//W3C//DTD SVG 1.1//EN"
 "http://www.w3.org/Graphics/SVG/1.1/DTD/svg11.dtd">
<!-- Generated by graphviz version 2.47.0 (20210316.0004)
 -->
<!-- Title: dependencies Pages: 1 -->
<svg width="1272pt" height="219pt"
 viewBox="0.00 0.00 1272.00 219.00" xmlns="http://www.w3.org/2000/svg" xmlns:xlink="http://www.w3.org/1999/xlink">
<g id="graph0" class="graph" transform="scale(1 1) rotate(0) translate(4 215)">
<title>dependencies</title>
<polygon fill="white" stroke="transparent" points="-4,4 -4,-215 1268,-215 1268,4 -4,4"/>
<text text-anchor="start" x="611.01" y="-42.4" font-family="Times-12" font-weight="bold" font-size="14.00">Legend</text>
<polygon fill="#ffffb3" stroke="transparent" points="398,-10 398,-30 418,-30 418,-10 398,-10"/>
<text text-anchor="start" x="421.63" y="-15.4" font-family="Times-12" font-size="14.00"> &#160;Declarations</text>
<polygon fill="#8dd3c7" stroke="transparent" points="511,-10 511,-30 531,-30 531,-10 511,-10"/>
<text text-anchor="start" x="534.73" y="-15.4" font-family="Times-12" font-size="14.00"> &#160;Module</text>
<polygon fill="#80b1d3" stroke="transparent" points="597,-10 597,-30 617,-30 617,-10 597,-10"/>
<text text-anchor="start" x="620.78" y="-15.4" font-family="Times-12" font-size="14.00"> &#160;Bootstrap</text>
<polygon fill="#fdb462" stroke="transparent" points="694,-10 694,-30 714,-30 714,-10 694,-10"/>
<text text-anchor="start" x="717.67" y="-15.4" font-family="Times-12" font-size="14.00"> &#160;Providers</text>
<polygon fill="#fb8072" stroke="transparent" points="790,-10 790,-30 810,-30 810,-10 790,-10"/>
<text text-anchor="start" x="813.73" y="-15.4" font-family="Times-12" font-size="14.00"> &#160;Exports</text>
<g id="clust1" class="cluster">
<title>cluster_StorageModule</title>
<polygon fill="none" stroke="black" stroke-dasharray="1,5" points="8,-70 8,-203 1256,-203 1256,-70 8,-70"/>
</g>
<g id="clust3" class="cluster">
<title>cluster_StorageModule_imports</title>
<polygon fill="none" stroke="black" points="1004,-78 1004,-195 1248,-195 1248,-78 1004,-78"/>
</g>
<g id="clust6" class="cluster">
<title>cluster_StorageModule_providers</title>
<polygon fill="none" stroke="black" points="16,-78 16,-130 996,-130 996,-78 16,-78"/>
</g>
<!-- AppConfigModule -->
<g id="node1" class="node">
<title>AppConfigModule</title>
<polygon fill="#8dd3c7" stroke="black" points="1240.05,-122 1237.05,-126 1216.05,-126 1213.05,-122 1117.95,-122 1117.95,-86 1240.05,-86 1240.05,-122"/>
<text text-anchor="middle" x="1179" y="-99.8" font-family="Times,serif" font-size="14.00">AppConfigModule</text>
</g>
<!-- StorageModule -->
<g id="node3" class="node">
<title>StorageModule</title>
<polygon fill="#8dd3c7" stroke="black" points="1114.31,-187 1111.31,-191 1090.31,-191 1087.31,-187 1011.69,-187 1011.69,-151 1114.31,-151 1114.31,-187"/>
<text text-anchor="middle" x="1063" y="-164.8" font-family="Times,serif" font-size="14.00">StorageModule</text>
</g>
<!-- AppConfigModule&#45;&gt;StorageModule -->
<g id="edge1" class="edge">
<title>AppConfigModule&#45;&gt;StorageModule</title>
<path fill="none" stroke="black" d="M1117.91,-104C1111.33,-104 1106.96,-104 1106.96,-104 1106.96,-104 1106.96,-140.89 1106.96,-140.89"/>
<polygon fill="black" stroke="black" points="1103.47,-140.89 1106.96,-150.89 1110.47,-140.89 1103.47,-140.89"/>
</g>
<!-- LogsModule -->
<g id="node2" class="node">
<title>LogsModule</title>
<polygon fill="#8dd3c7" stroke="black" points="1099.55,-122 1096.55,-126 1075.55,-126 1072.55,-122 1012.45,-122 1012.45,-86 1099.55,-86 1099.55,-122"/>
<text text-anchor="middle" x="1056" y="-99.8" font-family="Times,serif" font-size="14.00">LogsModule</text>
</g>
<!-- LogsModule&#45;&gt;StorageModule -->
<g id="edge2" class="edge">
<title>LogsModule&#45;&gt;StorageModule</title>
<path fill="none" stroke="black" d="M1070.59,-122.11C1070.59,-122.11 1070.59,-140.99 1070.59,-140.99"/>
<polygon fill="black" stroke="black" points="1067.09,-140.99 1070.59,-150.99 1074.09,-140.99 1067.09,-140.99"/>
</g>
<!-- StorageModule&#45;&gt;StorageModule -->
<g id="edge3" class="edge">
<title>StorageModule&#45;&gt;StorageModule</title>
<path fill="none" stroke="black" d="M1041.41,-150.76C1041.41,-143.57 1041.41,-137 1041.41,-137 1041.41,-137 999.69,-137 999.69,-137 999.69,-137 999.69,-205 999.69,-205 999.69,-205 1063,-205 1063,-205 1063,-205 1063,-197.42 1063,-197.42"/>
<polygon fill="black" stroke="black" points="1066.5,-197.42 1063,-187.42 1059.5,-197.42 1066.5,-197.42"/>
</g>
<!-- AwsS3StorageAdapter -->
<g id="node4" class="node">
<title>AwsS3StorageAdapter</title>
<ellipse fill="#fdb462" stroke="black" cx="888" cy="-104" rx="99.56" ry="18"/>
<text text-anchor="middle" x="888" y="-99.8" font-family="Times,serif" font-size="14.00">AwsS3StorageAdapter</text>
</g>
<!-- AwsS3StorageAdapter&#45;&gt;StorageModule -->
<g id="edge4" class="edge">
<title>AwsS3StorageAdapter&#45;&gt;StorageModule</title>
<path fill="none" stroke="black" d="M888,-122.24C888,-137.57 888,-157 888,-157 888,-157 1001.44,-157 1001.44,-157"/>
<polygon fill="black" stroke="black" points="1001.44,-160.5 1011.44,-157 1001.44,-153.5 1001.44,-160.5"/>
</g>
<!-- CloudinaryStorageAdapter -->
<g id="node5" class="node">
<title>CloudinaryStorageAdapter</title>
<ellipse fill="#fdb462" stroke="black" cx="655" cy="-104" rx="115.17" ry="18"/>
<text text-anchor="middle" x="655" y="-99.8" font-family="Times,serif" font-size="14.00">CloudinaryStorageAdapter</text>
</g>
<!-- CloudinaryStorageAdapter&#45;&gt;StorageModule -->
<g id="edge5" class="edge">
<title>CloudinaryStorageAdapter&#45;&gt;StorageModule</title>
<path fill="none" stroke="black" d="M655,-122.02C655,-139.37 655,-163 655,-163 655,-163 1001.74,-163 1001.74,-163"/>
<polygon fill="black" stroke="black" points="1001.74,-166.5 1011.74,-163 1001.74,-159.5 1001.74,-166.5"/>
</g>
<!-- GCPStorageAdapter -->
<g id="node6" class="node">
<title>GCPStorageAdapter</title>
<ellipse fill="#fdb462" stroke="black" cx="432" cy="-104" rx="90.33" ry="18"/>
<text text-anchor="middle" x="432" y="-99.8" font-family="Times,serif" font-size="14.00">GCPStorageAdapter</text>
</g>
<!-- GCPStorageAdapter&#45;&gt;StorageModule -->
<g id="edge6" class="edge">
<title>GCPStorageAdapter&#45;&gt;StorageModule</title>
<path fill="none" stroke="black" d="M432,-122.11C432,-141.34 432,-169 432,-169 432,-169 1001.63,-169 1001.63,-169"/>
<polygon fill="black" stroke="black" points="1001.63,-172.5 1011.63,-169 1001.63,-165.5 1001.63,-172.5"/>
</g>
<!-- StorageAdapter -->
<g id="node7" class="node">
<title>StorageAdapter</title>
<ellipse fill="#fdb462" stroke="black" cx="252" cy="-104" rx="71.77" ry="18"/>
<text text-anchor="middle" x="252" y="-99.8" font-family="Times,serif" font-size="14.00">StorageAdapter</text>
</g>
<!-- StorageAdapter&#45;&gt;StorageModule -->
<g id="edge7" class="edge">
<title>StorageAdapter&#45;&gt;StorageModule</title>
<path fill="none" stroke="black" d="M252,-122.28C252,-143.32 252,-175 252,-175 252,-175 1001.65,-175 1001.65,-175"/>
<polygon fill="black" stroke="black" points="1001.65,-178.5 1011.65,-175 1001.65,-171.5 1001.65,-178.5"/>
</g>
<!-- StorageService -->
<g id="node8" class="node">
<title>StorageService</title>
<ellipse fill="#fdb462" stroke="black" cx="93" cy="-104" rx="69.48" ry="18"/>
<text text-anchor="middle" x="93" y="-99.8" font-family="Times,serif" font-size="14.00">StorageService</text>
</g>
<!-- StorageService&#45;&gt;StorageModule -->
<g id="edge8" class="edge">
<title>StorageService&#45;&gt;StorageModule</title>
<path fill="none" stroke="black" d="M93,-122.25C93,-145.02 93,-181 93,-181 93,-181 1001.53,-181 1001.53,-181"/>
<polygon fill="black" stroke="black" points="1001.53,-184.5 1011.53,-181 1001.53,-177.5 1001.53,-184.5"/>
</g>
</g>
</svg>
