<?xml version="1.0" encoding="UTF-8" standalone="no"?>
<!DOCTYPE svg PUBLIC "-//W3C//DTD SVG 1.1//EN"
 "http://www.w3.org/Graphics/SVG/1.1/DTD/svg11.dtd">
<!-- Generated by graphviz version 2.47.0 (20210316.0004)
 -->
<!-- Title: dependencies Pages: 1 -->
<svg width="598pt" height="211pt"
 viewBox="0.00 0.00 598.00 211.00" xmlns="http://www.w3.org/2000/svg" xmlns:xlink="http://www.w3.org/1999/xlink">
<g id="graph0" class="graph" transform="scale(1 1) rotate(0) translate(4 207)">
<title>dependencies</title>
<polygon fill="white" stroke="transparent" points="-4,4 -4,-207 594,-207 594,4 -4,4"/>
<text text-anchor="start" x="274.01" y="-42.4" font-family="Times-12" font-weight="bold" font-size="14.00">Legend</text>
<polygon fill="#ffffb3" stroke="transparent" points="61,-10 61,-30 81,-30 81,-10 61,-10"/>
<text text-anchor="start" x="84.63" y="-15.4" font-family="Times-12" font-size="14.00"> &#160;Declarations</text>
<polygon fill="#8dd3c7" stroke="transparent" points="174,-10 174,-30 194,-30 194,-10 174,-10"/>
<text text-anchor="start" x="197.73" y="-15.4" font-family="Times-12" font-size="14.00"> &#160;Module</text>
<polygon fill="#80b1d3" stroke="transparent" points="260,-10 260,-30 280,-30 280,-10 260,-10"/>
<text text-anchor="start" x="283.78" y="-15.4" font-family="Times-12" font-size="14.00"> &#160;Bootstrap</text>
<polygon fill="#fdb462" stroke="transparent" points="357,-10 357,-30 377,-30 377,-10 357,-10"/>
<text text-anchor="start" x="380.67" y="-15.4" font-family="Times-12" font-size="14.00"> &#160;Providers</text>
<polygon fill="#fb8072" stroke="transparent" points="453,-10 453,-30 473,-30 473,-10 453,-10"/>
<text text-anchor="start" x="476.73" y="-15.4" font-family="Times-12" font-size="14.00"> &#160;Exports</text>
<g id="clust1" class="cluster">
<title>cluster_CommentsModule</title>
<polygon fill="none" stroke="black" stroke-dasharray="1,5" points="8,-70 8,-195 582,-195 582,-70 8,-70"/>
</g>
<g id="clust6" class="cluster">
<title>cluster_CommentsModule_providers</title>
<polygon fill="none" stroke="black" points="394,-78 394,-130 574,-130 574,-78 394,-78"/>
</g>
<g id="clust3" class="cluster">
<title>cluster_CommentsModule_imports</title>
<polygon fill="none" stroke="black" points="16,-78 16,-130 386,-130 386,-78 16,-78"/>
</g>
<!-- AppConfigModule -->
<g id="node1" class="node">
<title>AppConfigModule</title>
<polygon fill="#8dd3c7" stroke="black" points="378.05,-122 375.05,-126 354.05,-126 351.05,-122 255.95,-122 255.95,-86 378.05,-86 378.05,-122"/>
<text text-anchor="middle" x="317" y="-99.8" font-family="Times,serif" font-size="14.00">AppConfigModule</text>
</g>
<!-- CommentsModule -->
<g id="node4" class="node">
<title>CommentsModule</title>
<polygon fill="#8dd3c7" stroke="black" points="315.22,-187 312.22,-191 291.22,-191 288.22,-187 194.78,-187 194.78,-151 315.22,-151 315.22,-187"/>
<text text-anchor="middle" x="255" y="-164.8" font-family="Times,serif" font-size="14.00">CommentsModule</text>
</g>
<!-- AppConfigModule&#45;&gt;CommentsModule -->
<g id="edge1" class="edge">
<title>AppConfigModule&#45;&gt;CommentsModule</title>
<path fill="none" stroke="black" d="M285.42,-122.11C285.42,-122.11 285.42,-140.99 285.42,-140.99"/>
<polygon fill="black" stroke="black" points="281.92,-140.99 285.42,-150.99 288.92,-140.99 281.92,-140.99"/>
</g>
<!-- LogsModule -->
<g id="node2" class="node">
<title>LogsModule</title>
<polygon fill="#8dd3c7" stroke="black" points="237.55,-122 234.55,-126 213.55,-126 210.55,-122 150.45,-122 150.45,-86 237.55,-86 237.55,-122"/>
<text text-anchor="middle" x="194" y="-99.8" font-family="Times,serif" font-size="14.00">LogsModule</text>
</g>
<!-- LogsModule&#45;&gt;CommentsModule -->
<g id="edge2" class="edge">
<title>LogsModule&#45;&gt;CommentsModule</title>
<path fill="none" stroke="black" d="M216.33,-122.11C216.33,-122.11 216.33,-140.99 216.33,-140.99"/>
<polygon fill="black" stroke="black" points="212.83,-140.99 216.33,-150.99 219.83,-140.99 212.83,-140.99"/>
</g>
<!-- MeasureModule -->
<g id="node3" class="node">
<title>MeasureModule</title>
<polygon fill="#8dd3c7" stroke="black" points="131.74,-122 128.74,-126 107.74,-126 104.74,-122 24.26,-122 24.26,-86 131.74,-86 131.74,-122"/>
<text text-anchor="middle" x="78" y="-99.8" font-family="Times,serif" font-size="14.00">MeasureModule</text>
</g>
<!-- MeasureModule&#45;&gt;CommentsModule -->
<g id="edge3" class="edge">
<title>MeasureModule&#45;&gt;CommentsModule</title>
<path fill="none" stroke="black" d="M78,-122.11C78,-141.34 78,-169 78,-169 78,-169 184.58,-169 184.58,-169"/>
<polygon fill="black" stroke="black" points="184.58,-172.5 194.58,-169 184.58,-165.5 184.58,-172.5"/>
</g>
<!-- CommentsService -->
<g id="node5" class="node">
<title>CommentsService</title>
<ellipse fill="#fdb462" stroke="black" cx="484" cy="-104" rx="81.68" ry="18"/>
<text text-anchor="middle" x="484" y="-99.8" font-family="Times,serif" font-size="14.00">CommentsService</text>
</g>
<!-- CommentsService&#45;&gt;CommentsModule -->
<g id="edge4" class="edge">
<title>CommentsService&#45;&gt;CommentsModule</title>
<path fill="none" stroke="black" d="M484,-122.11C484,-141.34 484,-169 484,-169 484,-169 325.17,-169 325.17,-169"/>
<polygon fill="black" stroke="black" points="325.17,-165.5 315.17,-169 325.17,-172.5 325.17,-165.5"/>
</g>
</g>
</svg>
