<?xml version="1.0" encoding="UTF-8" standalone="no"?>
<!DOCTYPE svg PUBLIC "-//W3C//DTD SVG 1.1//EN"
 "http://www.w3.org/Graphics/SVG/1.1/DTD/svg11.dtd">
<!-- Generated by graphviz version 2.47.0 (20210316.0004)
 -->
<!-- Title: dependencies Pages: 1 -->
<svg width="556pt" height="211pt"
 viewBox="0.00 0.00 556.00 211.00" xmlns="http://www.w3.org/2000/svg" xmlns:xlink="http://www.w3.org/1999/xlink">
<g id="graph0" class="graph" transform="scale(1 1) rotate(0) translate(4 207)">
<title>dependencies</title>
<polygon fill="white" stroke="transparent" points="-4,4 -4,-207 552,-207 552,4 -4,4"/>
<text text-anchor="start" x="253.01" y="-42.4" font-family="Times-12" font-weight="bold" font-size="14.00">Legend</text>
<polygon fill="#ffffb3" stroke="transparent" points="40,-10 40,-30 60,-30 60,-10 40,-10"/>
<text text-anchor="start" x="63.63" y="-15.4" font-family="Times-12" font-size="14.00"> &#160;Declarations</text>
<polygon fill="#8dd3c7" stroke="transparent" points="153,-10 153,-30 173,-30 173,-10 153,-10"/>
<text text-anchor="start" x="176.73" y="-15.4" font-family="Times-12" font-size="14.00"> &#160;Module</text>
<polygon fill="#80b1d3" stroke="transparent" points="239,-10 239,-30 259,-30 259,-10 239,-10"/>
<text text-anchor="start" x="262.78" y="-15.4" font-family="Times-12" font-size="14.00"> &#160;Bootstrap</text>
<polygon fill="#fdb462" stroke="transparent" points="336,-10 336,-30 356,-30 356,-10 336,-10"/>
<text text-anchor="start" x="359.67" y="-15.4" font-family="Times-12" font-size="14.00"> &#160;Providers</text>
<polygon fill="#fb8072" stroke="transparent" points="432,-10 432,-30 452,-30 452,-10 432,-10"/>
<text text-anchor="start" x="455.73" y="-15.4" font-family="Times-12" font-size="14.00"> &#160;Exports</text>
<g id="clust1" class="cluster">
<title>cluster_LikesModule</title>
<polygon fill="none" stroke="black" stroke-dasharray="1,5" points="8,-70 8,-195 540,-195 540,-70 8,-70"/>
</g>
<g id="clust6" class="cluster">
<title>cluster_LikesModule_providers</title>
<polygon fill="none" stroke="black" points="394,-78 394,-130 532,-130 532,-78 394,-78"/>
</g>
<g id="clust3" class="cluster">
<title>cluster_LikesModule_imports</title>
<polygon fill="none" stroke="black" points="16,-78 16,-130 386,-130 386,-78 16,-78"/>
</g>
<!-- AppConfigModule -->
<g id="node1" class="node">
<title>AppConfigModule</title>
<polygon fill="#8dd3c7" stroke="black" points="378.05,-122 375.05,-126 354.05,-126 351.05,-122 255.95,-122 255.95,-86 378.05,-86 378.05,-122"/>
<text text-anchor="middle" x="317" y="-99.8" font-family="Times,serif" font-size="14.00">AppConfigModule</text>
</g>
<!-- LikesModule -->
<g id="node4" class="node">
<title>LikesModule</title>
<polygon fill="#8dd3c7" stroke="black" points="300.15,-187 297.15,-191 276.15,-191 273.15,-187 209.85,-187 209.85,-151 300.15,-151 300.15,-187"/>
<text text-anchor="middle" x="255" y="-164.8" font-family="Times,serif" font-size="14.00">LikesModule</text>
</g>
<!-- AppConfigModule&#45;&gt;LikesModule -->
<g id="edge1" class="edge">
<title>AppConfigModule&#45;&gt;LikesModule</title>
<path fill="none" stroke="black" d="M278.03,-122.11C278.03,-122.11 278.03,-140.99 278.03,-140.99"/>
<polygon fill="black" stroke="black" points="274.53,-140.99 278.03,-150.99 281.53,-140.99 274.53,-140.99"/>
</g>
<!-- LogsModule -->
<g id="node2" class="node">
<title>LogsModule</title>
<polygon fill="#8dd3c7" stroke="black" points="237.55,-122 234.55,-126 213.55,-126 210.55,-122 150.45,-122 150.45,-86 237.55,-86 237.55,-122"/>
<text text-anchor="middle" x="194" y="-99.8" font-family="Times,serif" font-size="14.00">LogsModule</text>
</g>
<!-- LogsModule&#45;&gt;LikesModule -->
<g id="edge2" class="edge">
<title>LogsModule&#45;&gt;LikesModule</title>
<path fill="none" stroke="black" d="M223.72,-122.11C223.72,-122.11 223.72,-140.99 223.72,-140.99"/>
<polygon fill="black" stroke="black" points="220.22,-140.99 223.72,-150.99 227.22,-140.99 220.22,-140.99"/>
</g>
<!-- MeasureModule -->
<g id="node3" class="node">
<title>MeasureModule</title>
<polygon fill="#8dd3c7" stroke="black" points="131.74,-122 128.74,-126 107.74,-126 104.74,-122 24.26,-122 24.26,-86 131.74,-86 131.74,-122"/>
<text text-anchor="middle" x="78" y="-99.8" font-family="Times,serif" font-size="14.00">MeasureModule</text>
</g>
<!-- MeasureModule&#45;&gt;LikesModule -->
<g id="edge3" class="edge">
<title>MeasureModule&#45;&gt;LikesModule</title>
<path fill="none" stroke="black" d="M78,-122.11C78,-141.34 78,-169 78,-169 78,-169 199.42,-169 199.42,-169"/>
<polygon fill="black" stroke="black" points="199.42,-172.5 209.42,-169 199.42,-165.5 199.42,-172.5"/>
</g>
<!-- LikesService -->
<g id="node5" class="node">
<title>LikesService</title>
<ellipse fill="#fdb462" stroke="black" cx="463" cy="-104" rx="61.39" ry="18"/>
<text text-anchor="middle" x="463" y="-99.8" font-family="Times,serif" font-size="14.00">LikesService</text>
</g>
<!-- LikesService&#45;&gt;LikesModule -->
<g id="edge4" class="edge">
<title>LikesService&#45;&gt;LikesModule</title>
<path fill="none" stroke="black" d="M463,-122.11C463,-141.34 463,-169 463,-169 463,-169 310.39,-169 310.39,-169"/>
<polygon fill="black" stroke="black" points="310.39,-165.5 300.39,-169 310.39,-172.5 310.39,-165.5"/>
</g>
</g>
</svg>
