<?xml version="1.0" encoding="UTF-8" standalone="no"?>
<!DOCTYPE svg PUBLIC "-//W3C//DTD SVG 1.1//EN"
 "http://www.w3.org/Graphics/SVG/1.1/DTD/svg11.dtd">
<!-- Generated by graphviz version 2.47.0 (20210316.0004)
 -->
<!-- Title: dependencies Pages: 1 -->
<svg width="906pt" height="211pt"
 viewBox="0.00 0.00 906.00 211.00" xmlns="http://www.w3.org/2000/svg" xmlns:xlink="http://www.w3.org/1999/xlink">
<g id="graph0" class="graph" transform="scale(1 1) rotate(0) translate(4 207)">
<title>dependencies</title>
<polygon fill="white" stroke="transparent" points="-4,4 -4,-207 902,-207 902,4 -4,4"/>
<text text-anchor="start" x="428.01" y="-42.4" font-family="Times-12" font-weight="bold" font-size="14.00">Legend</text>
<polygon fill="#ffffb3" stroke="transparent" points="215,-10 215,-30 235,-30 235,-10 215,-10"/>
<text text-anchor="start" x="238.63" y="-15.4" font-family="Times-12" font-size="14.00"> &#160;Declarations</text>
<polygon fill="#8dd3c7" stroke="transparent" points="328,-10 328,-30 348,-30 348,-10 328,-10"/>
<text text-anchor="start" x="351.73" y="-15.4" font-family="Times-12" font-size="14.00"> &#160;Module</text>
<polygon fill="#80b1d3" stroke="transparent" points="414,-10 414,-30 434,-30 434,-10 414,-10"/>
<text text-anchor="start" x="437.78" y="-15.4" font-family="Times-12" font-size="14.00"> &#160;Bootstrap</text>
<polygon fill="#fdb462" stroke="transparent" points="511,-10 511,-30 531,-30 531,-10 511,-10"/>
<text text-anchor="start" x="534.67" y="-15.4" font-family="Times-12" font-size="14.00"> &#160;Providers</text>
<polygon fill="#fb8072" stroke="transparent" points="607,-10 607,-30 627,-30 627,-10 607,-10"/>
<text text-anchor="start" x="630.73" y="-15.4" font-family="Times-12" font-size="14.00"> &#160;Exports</text>
<g id="clust1" class="cluster">
<title>cluster_AggregatorModule</title>
<polygon fill="none" stroke="black" stroke-dasharray="1,5" points="8,-70 8,-195 890,-195 890,-70 8,-70"/>
</g>
<g id="clust3" class="cluster">
<title>cluster_AggregatorModule_imports</title>
<polygon fill="none" stroke="black" points="16,-78 16,-130 882,-130 882,-78 16,-78"/>
</g>
<!-- AggregatorCacheModule -->
<g id="node1" class="node">
<title>AggregatorCacheModule</title>
<polygon fill="#8dd3c7" stroke="black" points="874.28,-122 871.28,-126 850.28,-126 847.28,-122 715.72,-122 715.72,-86 874.28,-86 874.28,-122"/>
<text text-anchor="middle" x="795" y="-99.8" font-family="Times,serif" font-size="14.00">AggregatorCacheModule</text>
</g>
<!-- AggregatorModule -->
<g id="node7" class="node">
<title>AggregatorModule</title>
<polygon fill="#8dd3c7" stroke="black" points="481.8,-187 478.8,-191 457.8,-191 454.8,-187 358.2,-187 358.2,-151 481.8,-151 481.8,-187"/>
<text text-anchor="middle" x="420" y="-164.8" font-family="Times,serif" font-size="14.00">AggregatorModule</text>
</g>
<!-- AggregatorCacheModule&#45;&gt;AggregatorModule -->
<g id="edge1" class="edge">
<title>AggregatorCacheModule&#45;&gt;AggregatorModule</title>
<path fill="none" stroke="black" d="M795,-122.28C795,-143.32 795,-175 795,-175 795,-175 491.92,-175 491.92,-175"/>
<polygon fill="black" stroke="black" points="491.92,-171.5 481.92,-175 491.92,-178.5 491.92,-171.5"/>
</g>
<!-- AppConfigModule -->
<g id="node2" class="node">
<title>AppConfigModule</title>
<polygon fill="#8dd3c7" stroke="black" points="698.05,-122 695.05,-126 674.05,-126 671.05,-122 575.95,-122 575.95,-86 698.05,-86 698.05,-122"/>
<text text-anchor="middle" x="637" y="-99.8" font-family="Times,serif" font-size="14.00">AppConfigModule</text>
</g>
<!-- AppConfigModule&#45;&gt;AggregatorModule -->
<g id="edge2" class="edge">
<title>AppConfigModule&#45;&gt;AggregatorModule</title>
<path fill="none" stroke="black" d="M637,-122.02C637,-139.37 637,-163 637,-163 637,-163 491.89,-163 491.89,-163"/>
<polygon fill="black" stroke="black" points="491.89,-159.5 481.89,-163 491.89,-166.5 491.89,-159.5"/>
</g>
<!-- AppHealthModule -->
<g id="node3" class="node">
<title>AppHealthModule</title>
<polygon fill="#8dd3c7" stroke="black" points="557.47,-122 554.47,-126 533.47,-126 530.47,-122 436.53,-122 436.53,-86 557.47,-86 557.47,-122"/>
<text text-anchor="middle" x="497" y="-99.8" font-family="Times,serif" font-size="14.00">AppHealthModule</text>
</g>
<!-- AppHealthModule&#45;&gt;AggregatorModule -->
<g id="edge3" class="edge">
<title>AppHealthModule&#45;&gt;AggregatorModule</title>
<path fill="none" stroke="black" d="M459.08,-122.11C459.08,-122.11 459.08,-140.99 459.08,-140.99"/>
<polygon fill="black" stroke="black" points="455.58,-140.99 459.08,-150.99 462.58,-140.99 455.58,-140.99"/>
</g>
<!-- LikesConsumerModule -->
<g id="node4" class="node">
<title>LikesConsumerModule</title>
<polygon fill="#8dd3c7" stroke="black" points="418.2,-122 415.2,-126 394.2,-126 391.2,-122 269.8,-122 269.8,-86 418.2,-86 418.2,-122"/>
<text text-anchor="middle" x="344" y="-99.8" font-family="Times,serif" font-size="14.00">LikesConsumerModule</text>
</g>
<!-- LikesConsumerModule&#45;&gt;AggregatorModule -->
<g id="edge4" class="edge">
<title>LikesConsumerModule&#45;&gt;AggregatorModule</title>
<path fill="none" stroke="black" d="M388.23,-122.11C388.23,-122.11 388.23,-140.99 388.23,-140.99"/>
<polygon fill="black" stroke="black" points="384.73,-140.99 388.23,-150.99 391.73,-140.99 384.73,-140.99"/>
</g>
<!-- LogsModule -->
<g id="node5" class="node">
<title>LogsModule</title>
<polygon fill="#8dd3c7" stroke="black" points="251.55,-122 248.55,-126 227.55,-126 224.55,-122 164.45,-122 164.45,-86 251.55,-86 251.55,-122"/>
<text text-anchor="middle" x="208" y="-99.8" font-family="Times,serif" font-size="14.00">LogsModule</text>
</g>
<!-- LogsModule&#45;&gt;AggregatorModule -->
<g id="edge5" class="edge">
<title>LogsModule&#45;&gt;AggregatorModule</title>
<path fill="none" stroke="black" d="M208,-122.02C208,-139.37 208,-163 208,-163 208,-163 348.11,-163 348.11,-163"/>
<polygon fill="black" stroke="black" points="348.11,-166.5 358.11,-163 348.11,-159.5 348.11,-166.5"/>
</g>
<!-- PersistanceModule -->
<g id="node6" class="node">
<title>PersistanceModule</title>
<polygon fill="#8dd3c7" stroke="black" points="146.02,-122 143.02,-126 122.02,-126 119.02,-122 23.98,-122 23.98,-86 146.02,-86 146.02,-122"/>
<text text-anchor="middle" x="85" y="-99.8" font-family="Times,serif" font-size="14.00">PersistanceModule</text>
</g>
<!-- PersistanceModule&#45;&gt;AggregatorModule -->
<g id="edge6" class="edge">
<title>PersistanceModule&#45;&gt;AggregatorModule</title>
<path fill="none" stroke="black" d="M85,-122.28C85,-143.32 85,-175 85,-175 85,-175 348.17,-175 348.17,-175"/>
<polygon fill="black" stroke="black" points="348.17,-178.5 358.17,-175 348.17,-171.5 348.17,-178.5"/>
</g>
</g>
</svg>
