<?xml version="1.0" encoding="UTF-8" standalone="no"?>
<!DOCTYPE svg PUBLIC "-//W3C//DTD SVG 1.1//EN"
 "http://www.w3.org/Graphics/SVG/1.1/DTD/svg11.dtd">
<!-- Generated by graphviz version 2.47.0 (20210316.0004)
 -->
<!-- Title: dependencies Pages: 1 -->
<svg width="504pt" height="211pt"
 viewBox="0.00 0.00 504.00 211.00" xmlns="http://www.w3.org/2000/svg" xmlns:xlink="http://www.w3.org/1999/xlink">
<g id="graph0" class="graph" transform="scale(1 1) rotate(0) translate(4 207)">
<title>dependencies</title>
<polygon fill="white" stroke="transparent" points="-4,4 -4,-207 500,-207 500,4 -4,4"/>
<text text-anchor="start" x="227.01" y="-42.4" font-family="Times-12" font-weight="bold" font-size="14.00">Legend</text>
<polygon fill="#ffffb3" stroke="transparent" points="14,-10 14,-30 34,-30 34,-10 14,-10"/>
<text text-anchor="start" x="37.63" y="-15.4" font-family="Times-12" font-size="14.00"> &#160;Declarations</text>
<polygon fill="#8dd3c7" stroke="transparent" points="127,-10 127,-30 147,-30 147,-10 127,-10"/>
<text text-anchor="start" x="150.73" y="-15.4" font-family="Times-12" font-size="14.00"> &#160;Module</text>
<polygon fill="#80b1d3" stroke="transparent" points="213,-10 213,-30 233,-30 233,-10 213,-10"/>
<text text-anchor="start" x="236.78" y="-15.4" font-family="Times-12" font-size="14.00"> &#160;Bootstrap</text>
<polygon fill="#fdb462" stroke="transparent" points="310,-10 310,-30 330,-30 330,-10 310,-10"/>
<text text-anchor="start" x="333.67" y="-15.4" font-family="Times-12" font-size="14.00"> &#160;Providers</text>
<polygon fill="#fb8072" stroke="transparent" points="406,-10 406,-30 426,-30 426,-10 406,-10"/>
<text text-anchor="start" x="429.73" y="-15.4" font-family="Times-12" font-size="14.00"> &#160;Exports</text>
<g id="clust1" class="cluster">
<title>cluster_SagaModule</title>
<polygon fill="none" stroke="black" stroke-dasharray="1,5" points="47,-70 47,-195 449,-195 449,-70 47,-70"/>
</g>
<g id="clust6" class="cluster">
<title>cluster_SagaModule_providers</title>
<polygon fill="none" stroke="black" points="307,-78 307,-130 441,-130 441,-78 307,-78"/>
</g>
<g id="clust3" class="cluster">
<title>cluster_SagaModule_imports</title>
<polygon fill="none" stroke="black" points="55,-78 55,-130 299,-130 299,-78 55,-78"/>
</g>
<!-- AppConfigModule -->
<g id="node1" class="node">
<title>AppConfigModule</title>
<polygon fill="#8dd3c7" stroke="black" points="291.05,-122 288.05,-126 267.05,-126 264.05,-122 168.95,-122 168.95,-86 291.05,-86 291.05,-122"/>
<text text-anchor="middle" x="230" y="-99.8" font-family="Times,serif" font-size="14.00">AppConfigModule</text>
</g>
<!-- SagaModule -->
<g id="node3" class="node">
<title>SagaModule</title>
<polygon fill="#8dd3c7" stroke="black" points="273.26,-187 270.26,-191 249.26,-191 246.26,-187 186.74,-187 186.74,-151 273.26,-151 273.26,-187"/>
<text text-anchor="middle" x="230" y="-164.8" font-family="Times,serif" font-size="14.00">SagaModule</text>
</g>
<!-- AppConfigModule&#45;&gt;SagaModule -->
<g id="edge1" class="edge">
<title>AppConfigModule&#45;&gt;SagaModule</title>
<path fill="none" stroke="black" d="M230,-122.11C230,-122.11 230,-140.99 230,-140.99"/>
<polygon fill="black" stroke="black" points="226.5,-140.99 230,-150.99 233.5,-140.99 226.5,-140.99"/>
</g>
<!-- LogsModule -->
<g id="node2" class="node">
<title>LogsModule</title>
<polygon fill="#8dd3c7" stroke="black" points="150.55,-122 147.55,-126 126.55,-126 123.55,-122 63.45,-122 63.45,-86 150.55,-86 150.55,-122"/>
<text text-anchor="middle" x="107" y="-99.8" font-family="Times,serif" font-size="14.00">LogsModule</text>
</g>
<!-- LogsModule&#45;&gt;SagaModule -->
<g id="edge2" class="edge">
<title>LogsModule&#45;&gt;SagaModule</title>
<path fill="none" stroke="black" d="M107,-122.11C107,-141.34 107,-169 107,-169 107,-169 176.63,-169 176.63,-169"/>
<polygon fill="black" stroke="black" points="176.63,-172.5 186.63,-169 176.63,-165.5 176.63,-172.5"/>
</g>
<!-- SagaService -->
<g id="node4" class="node">
<title>SagaService</title>
<ellipse fill="#fdb462" stroke="black" cx="374" cy="-104" rx="58.53" ry="18"/>
<text text-anchor="middle" x="374" y="-99.8" font-family="Times,serif" font-size="14.00">SagaService</text>
</g>
<!-- SagaService&#45;&gt;SagaModule -->
<g id="edge3" class="edge">
<title>SagaService&#45;&gt;SagaModule</title>
<path fill="none" stroke="black" d="M374,-122.11C374,-141.34 374,-169 374,-169 374,-169 283.6,-169 283.6,-169"/>
<polygon fill="black" stroke="black" points="283.6,-165.5 273.6,-169 283.6,-172.5 283.6,-165.5"/>
</g>
</g>
</svg>
