<?xml version="1.0" encoding="UTF-8" standalone="no"?>
<!DOCTYPE svg PUBLIC "-//W3C//DTD SVG 1.1//EN"
 "http://www.w3.org/Graphics/SVG/1.1/DTD/svg11.dtd">
<!-- Generated by graphviz version 2.47.0 (20210316.0004)
 -->
<!-- Title: dependencies Pages: 1 -->
<svg width="1654pt" height="211pt"
 viewBox="0.00 0.00 1654.00 211.00" xmlns="http://www.w3.org/2000/svg" xmlns:xlink="http://www.w3.org/1999/xlink">
<g id="graph0" class="graph" transform="scale(1 1) rotate(0) translate(4 207)">
<title>dependencies</title>
<polygon fill="white" stroke="transparent" points="-4,4 -4,-207 1650,-207 1650,4 -4,4"/>
<text text-anchor="start" x="802.01" y="-42.4" font-family="Times-12" font-weight="bold" font-size="14.00">Legend</text>
<polygon fill="#ffffb3" stroke="transparent" points="589,-10 589,-30 609,-30 609,-10 589,-10"/>
<text text-anchor="start" x="612.63" y="-15.4" font-family="Times-12" font-size="14.00"> &#160;Declarations</text>
<polygon fill="#8dd3c7" stroke="transparent" points="702,-10 702,-30 722,-30 722,-10 702,-10"/>
<text text-anchor="start" x="725.73" y="-15.4" font-family="Times-12" font-size="14.00"> &#160;Module</text>
<polygon fill="#80b1d3" stroke="transparent" points="788,-10 788,-30 808,-30 808,-10 788,-10"/>
<text text-anchor="start" x="811.78" y="-15.4" font-family="Times-12" font-size="14.00"> &#160;Bootstrap</text>
<polygon fill="#fdb462" stroke="transparent" points="885,-10 885,-30 905,-30 905,-10 885,-10"/>
<text text-anchor="start" x="908.67" y="-15.4" font-family="Times-12" font-size="14.00"> &#160;Providers</text>
<polygon fill="#fb8072" stroke="transparent" points="981,-10 981,-30 1001,-30 1001,-10 981,-10"/>
<text text-anchor="start" x="1004.73" y="-15.4" font-family="Times-12" font-size="14.00"> &#160;Exports</text>
<g id="clust1" class="cluster">
<title>cluster_UserModule</title>
<polygon fill="none" stroke="black" stroke-dasharray="1,5" points="8,-70 8,-195 1638,-195 1638,-70 8,-70"/>
</g>
<g id="clust3" class="cluster">
<title>cluster_UserModule_imports</title>
<polygon fill="none" stroke="black" points="1260,-78 1260,-130 1630,-130 1630,-78 1260,-78"/>
</g>
<g id="clust6" class="cluster">
<title>cluster_UserModule_providers</title>
<polygon fill="none" stroke="black" points="16,-78 16,-130 1252,-130 1252,-78 16,-78"/>
</g>
<!-- AppConfigModule -->
<g id="node1" class="node">
<title>AppConfigModule</title>
<polygon fill="#8dd3c7" stroke="black" points="1622.05,-122 1619.05,-126 1598.05,-126 1595.05,-122 1499.95,-122 1499.95,-86 1622.05,-86 1622.05,-122"/>
<text text-anchor="middle" x="1561" y="-99.8" font-family="Times,serif" font-size="14.00">AppConfigModule</text>
</g>
<!-- UserModule -->
<g id="node4" class="node">
<title>UserModule</title>
<polygon fill="#8dd3c7" stroke="black" points="1018.98,-187 1015.98,-191 994.98,-191 991.98,-187 933.02,-187 933.02,-151 1018.98,-151 1018.98,-187"/>
<text text-anchor="middle" x="976" y="-164.8" font-family="Times,serif" font-size="14.00">UserModule</text>
</g>
<!-- AppConfigModule&#45;&gt;UserModule -->
<g id="edge1" class="edge">
<title>AppConfigModule&#45;&gt;UserModule</title>
<path fill="none" stroke="black" d="M1561,-122.01C1561,-144.49 1561,-180 1561,-180 1561,-180 1029.02,-180 1029.02,-180"/>
<polygon fill="black" stroke="black" points="1029.02,-176.5 1019.02,-180 1029.02,-183.5 1029.02,-176.5"/>
</g>
<!-- LogsModule -->
<g id="node2" class="node">
<title>LogsModule</title>
<polygon fill="#8dd3c7" stroke="black" points="1481.55,-122 1478.55,-126 1457.55,-126 1454.55,-122 1394.45,-122 1394.45,-86 1481.55,-86 1481.55,-122"/>
<text text-anchor="middle" x="1438" y="-99.8" font-family="Times,serif" font-size="14.00">LogsModule</text>
</g>
<!-- LogsModule&#45;&gt;UserModule -->
<g id="edge2" class="edge">
<title>LogsModule&#45;&gt;UserModule</title>
<path fill="none" stroke="black" d="M1438,-122.13C1438,-142.57 1438,-173 1438,-173 1438,-173 1029.05,-173 1029.05,-173"/>
<polygon fill="black" stroke="black" points="1029.05,-169.5 1019.05,-173 1029.05,-176.5 1029.05,-169.5"/>
</g>
<!-- MeasureModule -->
<g id="node3" class="node">
<title>MeasureModule</title>
<polygon fill="#8dd3c7" stroke="black" points="1375.74,-122 1372.74,-126 1351.74,-126 1348.74,-122 1268.26,-122 1268.26,-86 1375.74,-86 1375.74,-122"/>
<text text-anchor="middle" x="1322" y="-99.8" font-family="Times,serif" font-size="14.00">MeasureModule</text>
</g>
<!-- MeasureModule&#45;&gt;UserModule -->
<g id="edge3" class="edge">
<title>MeasureModule&#45;&gt;UserModule</title>
<path fill="none" stroke="black" d="M1322,-122.27C1322,-140.56 1322,-166 1322,-166 1322,-166 1029.12,-166 1029.12,-166"/>
<polygon fill="black" stroke="black" points="1029.12,-162.5 1019.12,-166 1029.12,-169.5 1029.12,-162.5"/>
</g>
<!-- AppConfigService -->
<g id="node5" class="node">
<title>AppConfigService</title>
<ellipse fill="#fdb462" stroke="black" cx="1161" cy="-104" rx="83.39" ry="18"/>
<text text-anchor="middle" x="1161" y="-99.8" font-family="Times,serif" font-size="14.00">AppConfigService</text>
</g>
<!-- AppConfigService&#45;&gt;UserModule -->
<g id="edge4" class="edge">
<title>AppConfigService&#45;&gt;UserModule</title>
<path fill="none" stroke="black" d="M1161,-122.01C1161,-138.05 1161,-159 1161,-159 1161,-159 1029.37,-159 1029.37,-159"/>
<polygon fill="black" stroke="black" points="1029.37,-155.5 1019.37,-159 1029.37,-162.5 1029.37,-155.5"/>
</g>
<!-- PersistanceService -->
<g id="node6" class="node">
<title>PersistanceService</title>
<ellipse fill="#fdb462" stroke="black" cx="976" cy="-104" rx="83.36" ry="18"/>
<text text-anchor="middle" x="976" y="-99.8" font-family="Times,serif" font-size="14.00">PersistanceService</text>
</g>
<!-- PersistanceService&#45;&gt;UserModule -->
<g id="edge5" class="edge">
<title>PersistanceService&#45;&gt;UserModule</title>
<path fill="none" stroke="black" d="M976,-122.11C976,-122.11 976,-140.99 976,-140.99"/>
<polygon fill="black" stroke="black" points="972.5,-140.99 976,-150.99 979.5,-140.99 972.5,-140.99"/>
</g>
<!-- UserAggregatePersistanceACL -->
<g id="node7" class="node">
<title>UserAggregatePersistanceACL</title>
<ellipse fill="#fdb462" stroke="black" cx="742" cy="-104" rx="132.46" ry="18"/>
<text text-anchor="middle" x="742" y="-99.8" font-family="Times,serif" font-size="14.00">UserAggregatePersistanceACL</text>
</g>
<!-- UserAggregatePersistanceACL&#45;&gt;UserModule -->
<g id="edge6" class="edge">
<title>UserAggregatePersistanceACL&#45;&gt;UserModule</title>
<path fill="none" stroke="black" d="M742,-122.01C742,-138.05 742,-159 742,-159 742,-159 922.81,-159 922.81,-159"/>
<polygon fill="black" stroke="black" points="922.81,-162.5 932.81,-159 922.81,-155.5 922.81,-162.5"/>
</g>
<!-- UserCommandRepository -->
<g id="node8" class="node">
<title>UserCommandRepository</title>
<ellipse fill="#fdb462" stroke="black" cx="480" cy="-104" rx="111.76" ry="18"/>
<text text-anchor="middle" x="480" y="-99.8" font-family="Times,serif" font-size="14.00">UserCommandRepository</text>
</g>
<!-- UserCommandRepository&#45;&gt;UserModule -->
<g id="edge7" class="edge">
<title>UserCommandRepository&#45;&gt;UserModule</title>
<path fill="none" stroke="black" d="M480,-122.27C480,-140.56 480,-166 480,-166 480,-166 922.85,-166 922.85,-166"/>
<polygon fill="black" stroke="black" points="922.85,-169.5 932.85,-166 922.85,-162.5 922.85,-169.5"/>
</g>
<!-- UserQueryRepository -->
<g id="node9" class="node">
<title>UserQueryRepository</title>
<ellipse fill="#fdb462" stroke="black" cx="254" cy="-104" rx="95.55" ry="18"/>
<text text-anchor="middle" x="254" y="-99.8" font-family="Times,serif" font-size="14.00">UserQueryRepository</text>
</g>
<!-- UserQueryRepository&#45;&gt;UserModule -->
<g id="edge8" class="edge">
<title>UserQueryRepository&#45;&gt;UserModule</title>
<path fill="none" stroke="black" d="M254,-122.13C254,-142.57 254,-173 254,-173 254,-173 923,-173 923,-173"/>
<polygon fill="black" stroke="black" points="923,-176.5 933,-173 923,-169.5 923,-176.5"/>
</g>
<!-- UserService -->
<g id="node10" class="node">
<title>UserService</title>
<ellipse fill="#fdb462" stroke="black" cx="82" cy="-104" rx="58.44" ry="18"/>
<text text-anchor="middle" x="82" y="-99.8" font-family="Times,serif" font-size="14.00">UserService</text>
</g>
<!-- UserService&#45;&gt;UserModule -->
<g id="edge9" class="edge">
<title>UserService&#45;&gt;UserModule</title>
<path fill="none" stroke="black" d="M82,-122.01C82,-144.49 82,-180 82,-180 82,-180 922.88,-180 922.88,-180"/>
<polygon fill="black" stroke="black" points="922.88,-183.5 932.88,-180 922.88,-176.5 922.88,-183.5"/>
</g>
</g>
</svg>
