<?xml version="1.0" encoding="UTF-8" standalone="no"?>
<!DOCTYPE svg PUBLIC "-//W3C//DTD SVG 1.1//EN"
 "http://www.w3.org/Graphics/SVG/1.1/DTD/svg11.dtd">
<!-- Generated by graphviz version 2.47.0 (20210316.0004)
 -->
<!-- Title: dependencies Pages: 1 -->
<svg width="828pt" height="211pt"
 viewBox="0.00 0.00 828.00 211.00" xmlns="http://www.w3.org/2000/svg" xmlns:xlink="http://www.w3.org/1999/xlink">
<g id="graph0" class="graph" transform="scale(1 1) rotate(0) translate(4 207)">
<title>dependencies</title>
<polygon fill="white" stroke="transparent" points="-4,4 -4,-207 824,-207 824,4 -4,4"/>
<text text-anchor="start" x="389.01" y="-42.4" font-family="Times-12" font-weight="bold" font-size="14.00">Legend</text>
<polygon fill="#ffffb3" stroke="transparent" points="176,-10 176,-30 196,-30 196,-10 176,-10"/>
<text text-anchor="start" x="199.63" y="-15.4" font-family="Times-12" font-size="14.00"> &#160;Declarations</text>
<polygon fill="#8dd3c7" stroke="transparent" points="289,-10 289,-30 309,-30 309,-10 289,-10"/>
<text text-anchor="start" x="312.73" y="-15.4" font-family="Times-12" font-size="14.00"> &#160;Module</text>
<polygon fill="#80b1d3" stroke="transparent" points="375,-10 375,-30 395,-30 395,-10 375,-10"/>
<text text-anchor="start" x="398.78" y="-15.4" font-family="Times-12" font-size="14.00"> &#160;Bootstrap</text>
<polygon fill="#fdb462" stroke="transparent" points="472,-10 472,-30 492,-30 492,-10 472,-10"/>
<text text-anchor="start" x="495.67" y="-15.4" font-family="Times-12" font-size="14.00"> &#160;Providers</text>
<polygon fill="#fb8072" stroke="transparent" points="568,-10 568,-30 588,-30 588,-10 568,-10"/>
<text text-anchor="start" x="591.73" y="-15.4" font-family="Times-12" font-size="14.00"> &#160;Exports</text>
<g id="clust1" class="cluster">
<title>cluster_AuthModule</title>
<polygon fill="none" stroke="black" stroke-dasharray="1,5" points="8,-70 8,-195 812,-195 812,-70 8,-70"/>
</g>
<g id="clust3" class="cluster">
<title>cluster_AuthModule_imports</title>
<polygon fill="none" stroke="black" points="158,-78 158,-130 804,-130 804,-78 158,-78"/>
</g>
<g id="clust6" class="cluster">
<title>cluster_AuthModule_providers</title>
<polygon fill="none" stroke="black" points="16,-78 16,-130 150,-130 150,-78 16,-78"/>
</g>
<!-- AppConfigModule -->
<g id="node1" class="node">
<title>AppConfigModule</title>
<polygon fill="#8dd3c7" stroke="black" points="796.05,-122 793.05,-126 772.05,-126 769.05,-122 673.95,-122 673.95,-86 796.05,-86 796.05,-122"/>
<text text-anchor="middle" x="735" y="-99.8" font-family="Times,serif" font-size="14.00">AppConfigModule</text>
</g>
<!-- AuthModule -->
<g id="node6" class="node">
<title>AuthModule</title>
<polygon fill="#8dd3c7" stroke="black" points="444.55,-187 441.55,-191 420.55,-191 417.55,-187 357.45,-187 357.45,-151 444.55,-151 444.55,-187"/>
<text text-anchor="middle" x="401" y="-164.8" font-family="Times,serif" font-size="14.00">AuthModule</text>
</g>
<!-- AppConfigModule&#45;&gt;AuthModule -->
<g id="edge1" class="edge">
<title>AppConfigModule&#45;&gt;AuthModule</title>
<path fill="none" stroke="black" d="M735,-122.28C735,-143.32 735,-175 735,-175 735,-175 454.66,-175 454.66,-175"/>
<polygon fill="black" stroke="black" points="454.66,-171.5 444.66,-175 454.66,-178.5 454.66,-171.5"/>
</g>
<!-- AppJwtModule -->
<g id="node2" class="node">
<title>AppJwtModule</title>
<polygon fill="#8dd3c7" stroke="black" points="655.6,-122 652.6,-126 631.6,-126 628.6,-122 552.4,-122 552.4,-86 655.6,-86 655.6,-122"/>
<text text-anchor="middle" x="604" y="-99.8" font-family="Times,serif" font-size="14.00">AppJwtModule</text>
</g>
<!-- AppJwtModule&#45;&gt;AuthModule -->
<g id="edge2" class="edge">
<title>AppJwtModule&#45;&gt;AuthModule</title>
<path fill="none" stroke="black" d="M604,-122.02C604,-139.37 604,-163 604,-163 604,-163 454.55,-163 454.55,-163"/>
<polygon fill="black" stroke="black" points="454.55,-159.5 444.55,-163 454.55,-166.5 454.55,-159.5"/>
</g>
<!-- GatewayAuthModule -->
<g id="node3" class="node">
<title>GatewayAuthModule</title>
<polygon fill="#8dd3c7" stroke="black" points="534.79,-122 531.79,-126 510.79,-126 507.79,-122 397.21,-122 397.21,-86 534.79,-86 534.79,-122"/>
<text text-anchor="middle" x="466" y="-99.8" font-family="Times,serif" font-size="14.00">GatewayAuthModule</text>
</g>
<!-- GatewayAuthModule&#45;&gt;AuthModule -->
<g id="edge3" class="edge">
<title>GatewayAuthModule&#45;&gt;AuthModule</title>
<path fill="none" stroke="black" d="M421.06,-122.11C421.06,-122.11 421.06,-140.99 421.06,-140.99"/>
<polygon fill="black" stroke="black" points="417.56,-140.99 421.06,-150.99 424.56,-140.99 417.56,-140.99"/>
</g>
<!-- LogsModule -->
<g id="node4" class="node">
<title>LogsModule</title>
<polygon fill="#8dd3c7" stroke="black" points="379.55,-122 376.55,-126 355.55,-126 352.55,-122 292.45,-122 292.45,-86 379.55,-86 379.55,-122"/>
<text text-anchor="middle" x="336" y="-99.8" font-family="Times,serif" font-size="14.00">LogsModule</text>
</g>
<!-- LogsModule&#45;&gt;AuthModule -->
<g id="edge4" class="edge">
<title>LogsModule&#45;&gt;AuthModule</title>
<path fill="none" stroke="black" d="M368.5,-122.11C368.5,-122.11 368.5,-140.99 368.5,-140.99"/>
<polygon fill="black" stroke="black" points="365,-140.99 368.5,-150.99 372,-140.99 365,-140.99"/>
</g>
<!-- MeasureModule -->
<g id="node5" class="node">
<title>MeasureModule</title>
<polygon fill="#8dd3c7" stroke="black" points="273.74,-122 270.74,-126 249.74,-126 246.74,-122 166.26,-122 166.26,-86 273.74,-86 273.74,-122"/>
<text text-anchor="middle" x="220" y="-99.8" font-family="Times,serif" font-size="14.00">MeasureModule</text>
</g>
<!-- MeasureModule&#45;&gt;AuthModule -->
<g id="edge5" class="edge">
<title>MeasureModule&#45;&gt;AuthModule</title>
<path fill="none" stroke="black" d="M220,-122.02C220,-139.37 220,-163 220,-163 220,-163 347.18,-163 347.18,-163"/>
<polygon fill="black" stroke="black" points="347.18,-166.5 357.18,-163 347.18,-159.5 347.18,-166.5"/>
</g>
<!-- AuthService -->
<g id="node7" class="node">
<title>AuthService</title>
<ellipse fill="#fdb462" stroke="black" cx="83" cy="-104" rx="59.11" ry="18"/>
<text text-anchor="middle" x="83" y="-99.8" font-family="Times,serif" font-size="14.00">AuthService</text>
</g>
<!-- AuthService&#45;&gt;AuthModule -->
<g id="edge6" class="edge">
<title>AuthService&#45;&gt;AuthModule</title>
<path fill="none" stroke="black" d="M83,-122.28C83,-143.32 83,-175 83,-175 83,-175 347.45,-175 347.45,-175"/>
<polygon fill="black" stroke="black" points="347.45,-178.5 357.45,-175 347.45,-171.5 347.45,-178.5"/>
</g>
</g>
</svg>
