<?xml version="1.0" encoding="UTF-8" standalone="no"?>
<!DOCTYPE svg PUBLIC "-//W3C//DTD SVG 1.1//EN"
 "http://www.w3.org/Graphics/SVG/1.1/DTD/svg11.dtd">
<!-- Generated by graphviz version 2.47.0 (20210316.0004)
 -->
<!-- Title: dependencies Pages: 1 -->
<svg width="1587pt" height="211pt"
 viewBox="0.00 0.00 1587.00 211.00" xmlns="http://www.w3.org/2000/svg" xmlns:xlink="http://www.w3.org/1999/xlink">
<g id="graph0" class="graph" transform="scale(1 1) rotate(0) translate(4 207)">
<title>dependencies</title>
<polygon fill="white" stroke="transparent" points="-4,4 -4,-207 1583,-207 1583,4 -4,4"/>
<text text-anchor="start" x="768.51" y="-42.4" font-family="Times-12" font-weight="bold" font-size="14.00">Legend</text>
<polygon fill="#ffffb3" stroke="transparent" points="555.5,-10 555.5,-30 575.5,-30 575.5,-10 555.5,-10"/>
<text text-anchor="start" x="579.13" y="-15.4" font-family="Times-12" font-size="14.00"> &#160;Declarations</text>
<polygon fill="#8dd3c7" stroke="transparent" points="668.5,-10 668.5,-30 688.5,-30 688.5,-10 668.5,-10"/>
<text text-anchor="start" x="692.23" y="-15.4" font-family="Times-12" font-size="14.00"> &#160;Module</text>
<polygon fill="#80b1d3" stroke="transparent" points="754.5,-10 754.5,-30 774.5,-30 774.5,-10 754.5,-10"/>
<text text-anchor="start" x="778.28" y="-15.4" font-family="Times-12" font-size="14.00"> &#160;Bootstrap</text>
<polygon fill="#fdb462" stroke="transparent" points="851.5,-10 851.5,-30 871.5,-30 871.5,-10 851.5,-10"/>
<text text-anchor="start" x="875.17" y="-15.4" font-family="Times-12" font-size="14.00"> &#160;Providers</text>
<polygon fill="#fb8072" stroke="transparent" points="947.5,-10 947.5,-30 967.5,-30 967.5,-10 947.5,-10"/>
<text text-anchor="start" x="971.23" y="-15.4" font-family="Times-12" font-size="14.00"> &#160;Exports</text>
<g id="clust1" class="cluster">
<title>cluster_LikesConsumerModule</title>
<polygon fill="none" stroke="black" stroke-dasharray="1,5" points="8,-70 8,-195 1571,-195 1571,-70 8,-70"/>
</g>
<g id="clust6" class="cluster">
<title>cluster_LikesConsumerModule_providers</title>
<polygon fill="none" stroke="black" points="584,-78 584,-130 1563,-130 1563,-78 584,-78"/>
</g>
<g id="clust3" class="cluster">
<title>cluster_LikesConsumerModule_imports</title>
<polygon fill="none" stroke="black" points="16,-78 16,-130 576,-130 576,-78 16,-78"/>
</g>
<!-- AggregatorCacheModule -->
<g id="node1" class="node">
<title>AggregatorCacheModule</title>
<polygon fill="#8dd3c7" stroke="black" points="568.28,-122 565.28,-126 544.28,-126 541.28,-122 409.72,-122 409.72,-86 568.28,-86 568.28,-122"/>
<text text-anchor="middle" x="489" y="-99.8" font-family="Times,serif" font-size="14.00">AggregatorCacheModule</text>
</g>
<!-- LikesConsumerModule -->
<g id="node5" class="node">
<title>LikesConsumerModule</title>
<polygon fill="#8dd3c7" stroke="black" points="767.2,-187 764.2,-191 743.2,-191 740.2,-187 618.8,-187 618.8,-151 767.2,-151 767.2,-187"/>
<text text-anchor="middle" x="693" y="-164.8" font-family="Times,serif" font-size="14.00">LikesConsumerModule</text>
</g>
<!-- AggregatorCacheModule&#45;&gt;LikesConsumerModule -->
<g id="edge1" class="edge">
<title>AggregatorCacheModule&#45;&gt;LikesConsumerModule</title>
<path fill="none" stroke="black" d="M489,-122.01C489,-138.05 489,-159 489,-159 489,-159 608.77,-159 608.77,-159"/>
<polygon fill="black" stroke="black" points="608.77,-162.5 618.77,-159 608.77,-155.5 608.77,-162.5"/>
</g>
<!-- AppConfigModule -->
<g id="node2" class="node">
<title>AppConfigModule</title>
<polygon fill="#8dd3c7" stroke="black" points="392.05,-122 389.05,-126 368.05,-126 365.05,-122 269.95,-122 269.95,-86 392.05,-86 392.05,-122"/>
<text text-anchor="middle" x="331" y="-99.8" font-family="Times,serif" font-size="14.00">AppConfigModule</text>
</g>
<!-- AppConfigModule&#45;&gt;LikesConsumerModule -->
<g id="edge2" class="edge">
<title>AppConfigModule&#45;&gt;LikesConsumerModule</title>
<path fill="none" stroke="black" d="M331,-122.27C331,-140.56 331,-166 331,-166 331,-166 608.87,-166 608.87,-166"/>
<polygon fill="black" stroke="black" points="608.87,-169.5 618.87,-166 608.87,-162.5 608.87,-169.5"/>
</g>
<!-- LogsModule -->
<g id="node3" class="node">
<title>LogsModule</title>
<polygon fill="#8dd3c7" stroke="black" points="251.55,-122 248.55,-126 227.55,-126 224.55,-122 164.45,-122 164.45,-86 251.55,-86 251.55,-122"/>
<text text-anchor="middle" x="208" y="-99.8" font-family="Times,serif" font-size="14.00">LogsModule</text>
</g>
<!-- LogsModule&#45;&gt;LikesConsumerModule -->
<g id="edge3" class="edge">
<title>LogsModule&#45;&gt;LikesConsumerModule</title>
<path fill="none" stroke="black" d="M208,-122.13C208,-142.57 208,-173 208,-173 208,-173 608.81,-173 608.81,-173"/>
<polygon fill="black" stroke="black" points="608.81,-176.5 618.81,-173 608.81,-169.5 608.81,-176.5"/>
</g>
<!-- PersistanceModule -->
<g id="node4" class="node">
<title>PersistanceModule</title>
<polygon fill="#8dd3c7" stroke="black" points="146.02,-122 143.02,-126 122.02,-126 119.02,-122 23.98,-122 23.98,-86 146.02,-86 146.02,-122"/>
<text text-anchor="middle" x="85" y="-99.8" font-family="Times,serif" font-size="14.00">PersistanceModule</text>
</g>
<!-- PersistanceModule&#45;&gt;LikesConsumerModule -->
<g id="edge4" class="edge">
<title>PersistanceModule&#45;&gt;LikesConsumerModule</title>
<path fill="none" stroke="black" d="M85,-122.01C85,-144.49 85,-180 85,-180 85,-180 608.75,-180 608.75,-180"/>
<polygon fill="black" stroke="black" points="608.75,-183.5 618.75,-180 608.75,-176.5 608.75,-183.5"/>
</g>
<!-- AppConfigService -->
<g id="node6" class="node">
<title>AppConfigService</title>
<ellipse fill="#fdb462" stroke="black" cx="1472" cy="-104" rx="83.39" ry="18"/>
<text text-anchor="middle" x="1472" y="-99.8" font-family="Times,serif" font-size="14.00">AppConfigService</text>
</g>
<!-- AppConfigService&#45;&gt;LikesConsumerModule -->
<g id="edge5" class="edge">
<title>AppConfigService&#45;&gt;LikesConsumerModule</title>
<path fill="none" stroke="black" d="M1472,-122.01C1472,-144.49 1472,-180 1472,-180 1472,-180 777.34,-180 777.34,-180"/>
<polygon fill="black" stroke="black" points="777.34,-176.5 767.34,-180 777.34,-183.5 777.34,-176.5"/>
</g>
<!-- LikeAggregateFactory -->
<g id="node7" class="node">
<title>LikeAggregateFactory</title>
<ellipse fill="#fdb462" stroke="black" cx="1272" cy="-104" rx="98.39" ry="18"/>
<text text-anchor="middle" x="1272" y="-99.8" font-family="Times,serif" font-size="14.00">LikeAggregateFactory</text>
</g>
<!-- LikeAggregateFactory&#45;&gt;LikesConsumerModule -->
<g id="edge6" class="edge">
<title>LikeAggregateFactory&#45;&gt;LikesConsumerModule</title>
<path fill="none" stroke="black" d="M1272,-122.13C1272,-142.57 1272,-173 1272,-173 1272,-173 777.21,-173 777.21,-173"/>
<polygon fill="black" stroke="black" points="777.21,-169.5 767.21,-173 777.21,-176.5 777.21,-169.5"/>
</g>
<!-- LikePersistanceACL -->
<g id="node8" class="node">
<title>LikePersistanceACL</title>
<ellipse fill="#fdb462" stroke="black" cx="1064" cy="-104" rx="91.47" ry="18"/>
<text text-anchor="middle" x="1064" y="-99.8" font-family="Times,serif" font-size="14.00">LikePersistanceACL</text>
</g>
<!-- LikePersistanceACL&#45;&gt;LikesConsumerModule -->
<g id="edge7" class="edge">
<title>LikePersistanceACL&#45;&gt;LikesConsumerModule</title>
<path fill="none" stroke="black" d="M1064,-122.27C1064,-140.56 1064,-166 1064,-166 1064,-166 777.19,-166 777.19,-166"/>
<polygon fill="black" stroke="black" points="777.19,-162.5 767.19,-166 777.19,-169.5 777.19,-162.5"/>
</g>
<!-- LikeRepository -->
<g id="node9" class="node">
<title>LikeRepository</title>
<ellipse fill="#fdb462" stroke="black" cx="883" cy="-104" rx="71.23" ry="18"/>
<text text-anchor="middle" x="883" y="-99.8" font-family="Times,serif" font-size="14.00">LikeRepository</text>
</g>
<!-- LikeRepository&#45;&gt;LikesConsumerModule -->
<g id="edge8" class="edge">
<title>LikeRepository&#45;&gt;LikesConsumerModule</title>
<path fill="none" stroke="black" d="M883,-122.01C883,-138.05 883,-159 883,-159 883,-159 777.28,-159 777.28,-159"/>
<polygon fill="black" stroke="black" points="777.28,-155.5 767.28,-159 777.28,-162.5 777.28,-155.5"/>
</g>
<!-- LikesConsumerService -->
<g id="node10" class="node">
<title>LikesConsumerService</title>
<ellipse fill="#fdb462" stroke="black" cx="693" cy="-104" rx="101.28" ry="18"/>
<text text-anchor="middle" x="693" y="-99.8" font-family="Times,serif" font-size="14.00">LikesConsumerService</text>
</g>
<!-- LikesConsumerService&#45;&gt;LikesConsumerModule -->
<g id="edge9" class="edge">
<title>LikesConsumerService&#45;&gt;LikesConsumerModule</title>
<path fill="none" stroke="black" d="M693,-122.11C693,-122.11 693,-140.99 693,-140.99"/>
<polygon fill="black" stroke="black" points="689.5,-140.99 693,-150.99 696.5,-140.99 689.5,-140.99"/>
</g>
</g>
</svg>
