<?xml version="1.0" encoding="UTF-8" standalone="no"?>
<!DOCTYPE svg PUBLIC "-//W3C//DTD SVG 1.1//EN"
 "http://www.w3.org/Graphics/SVG/1.1/DTD/svg11.dtd">
<!-- Generated by graphviz version 2.47.0 (20210316.0004)
 -->
<!-- Title: dependencies Pages: 1 -->
<svg width="1567pt" height="211pt"
 viewBox="0.00 0.00 1567.00 211.00" xmlns="http://www.w3.org/2000/svg" xmlns:xlink="http://www.w3.org/1999/xlink">
<g id="graph0" class="graph" transform="scale(1 1) rotate(0) translate(4 207)">
<title>dependencies</title>
<polygon fill="white" stroke="transparent" points="-4,4 -4,-207 1563,-207 1563,4 -4,4"/>
<text text-anchor="start" x="758.51" y="-42.4" font-family="Times-12" font-weight="bold" font-size="14.00">Legend</text>
<polygon fill="#ffffb3" stroke="transparent" points="545.5,-10 545.5,-30 565.5,-30 565.5,-10 545.5,-10"/>
<text text-anchor="start" x="569.13" y="-15.4" font-family="Times-12" font-size="14.00"> &#160;Declarations</text>
<polygon fill="#8dd3c7" stroke="transparent" points="658.5,-10 658.5,-30 678.5,-30 678.5,-10 658.5,-10"/>
<text text-anchor="start" x="682.23" y="-15.4" font-family="Times-12" font-size="14.00"> &#160;Module</text>
<polygon fill="#80b1d3" stroke="transparent" points="744.5,-10 744.5,-30 764.5,-30 764.5,-10 744.5,-10"/>
<text text-anchor="start" x="768.28" y="-15.4" font-family="Times-12" font-size="14.00"> &#160;Bootstrap</text>
<polygon fill="#fdb462" stroke="transparent" points="841.5,-10 841.5,-30 861.5,-30 861.5,-10 841.5,-10"/>
<text text-anchor="start" x="865.17" y="-15.4" font-family="Times-12" font-size="14.00"> &#160;Providers</text>
<polygon fill="#fb8072" stroke="transparent" points="937.5,-10 937.5,-30 957.5,-30 957.5,-10 937.5,-10"/>
<text text-anchor="start" x="961.23" y="-15.4" font-family="Times-12" font-size="14.00"> &#160;Exports</text>
<g id="clust1" class="cluster">
<title>cluster_VideosModule</title>
<polygon fill="none" stroke="black" stroke-dasharray="1,5" points="8,-70 8,-195 1551,-195 1551,-70 8,-70"/>
</g>
<g id="clust3" class="cluster">
<title>cluster_VideosModule_imports</title>
<polygon fill="none" stroke="black" points="1439,-78 1439,-130 1543,-130 1543,-78 1439,-78"/>
</g>
<g id="clust6" class="cluster">
<title>cluster_VideosModule_providers</title>
<polygon fill="none" stroke="black" points="16,-78 16,-130 1431,-130 1431,-78 16,-78"/>
</g>
<!-- LogsModule -->
<g id="node1" class="node">
<title>LogsModule</title>
<polygon fill="#8dd3c7" stroke="black" points="1534.55,-122 1531.55,-126 1510.55,-126 1507.55,-122 1447.45,-122 1447.45,-86 1534.55,-86 1534.55,-122"/>
<text text-anchor="middle" x="1491" y="-99.8" font-family="Times,serif" font-size="14.00">LogsModule</text>
</g>
<!-- VideosModule -->
<g id="node2" class="node">
<title>VideosModule</title>
<polygon fill="#8dd3c7" stroke="black" points="835.71,-187 832.71,-191 811.71,-191 808.71,-187 736.29,-187 736.29,-151 835.71,-151 835.71,-187"/>
<text text-anchor="middle" x="786" y="-164.8" font-family="Times,serif" font-size="14.00">VideosModule</text>
</g>
<!-- LogsModule&#45;&gt;VideosModule -->
<g id="edge1" class="edge">
<title>LogsModule&#45;&gt;VideosModule</title>
<path fill="none" stroke="black" d="M1491,-122.29C1491,-144.21 1491,-178 1491,-178 1491,-178 845.86,-178 845.86,-178"/>
<polygon fill="black" stroke="black" points="845.86,-174.5 835.86,-178 845.86,-181.5 845.86,-174.5"/>
</g>
<!-- QueryModelResponseMapper -->
<g id="node3" class="node">
<title>QueryModelResponseMapper</title>
<ellipse fill="#fdb462" stroke="black" cx="1296" cy="-104" rx="127.33" ry="18"/>
<text text-anchor="middle" x="1296" y="-99.8" font-family="Times,serif" font-size="14.00">QueryModelResponseMapper</text>
</g>
<!-- QueryModelResponseMapper&#45;&gt;VideosModule -->
<g id="edge2" class="edge">
<title>QueryModelResponseMapper&#45;&gt;VideosModule</title>
<path fill="none" stroke="black" d="M1296,-122.11C1296,-141.34 1296,-169 1296,-169 1296,-169 845.83,-169 845.83,-169"/>
<polygon fill="black" stroke="black" points="845.83,-165.5 835.83,-169 845.83,-172.5 845.83,-165.5"/>
</g>
<!-- VideoAggregateFactory -->
<g id="node4" class="node">
<title>VideoAggregateFactory</title>
<ellipse fill="#fdb462" stroke="black" cx="1046" cy="-104" rx="104.2" ry="18"/>
<text text-anchor="middle" x="1046" y="-99.8" font-family="Times,serif" font-size="14.00">VideoAggregateFactory</text>
</g>
<!-- VideoAggregateFactory&#45;&gt;VideosModule -->
<g id="edge3" class="edge">
<title>VideoAggregateFactory&#45;&gt;VideosModule</title>
<path fill="none" stroke="black" d="M1046,-122.03C1046,-138.4 1046,-160 1046,-160 1046,-160 845.82,-160 845.82,-160"/>
<polygon fill="black" stroke="black" points="845.82,-156.5 835.82,-160 845.82,-163.5 845.82,-156.5"/>
</g>
<!-- VideoAggregatePersistanceACL -->
<g id="node5" class="node">
<title>VideoAggregatePersistanceACL</title>
<ellipse fill="#fdb462" stroke="black" cx="786" cy="-104" rx="137.7" ry="18"/>
<text text-anchor="middle" x="786" y="-99.8" font-family="Times,serif" font-size="14.00">VideoAggregatePersistanceACL</text>
</g>
<!-- VideoAggregatePersistanceACL&#45;&gt;VideosModule -->
<g id="edge4" class="edge">
<title>VideoAggregatePersistanceACL&#45;&gt;VideosModule</title>
<path fill="none" stroke="black" d="M786,-122.11C786,-122.11 786,-140.99 786,-140.99"/>
<polygon fill="black" stroke="black" points="782.5,-140.99 786,-150.99 789.5,-140.99 782.5,-140.99"/>
</g>
<!-- VideoCommandRepository -->
<g id="node6" class="node">
<title>VideoCommandRepository</title>
<ellipse fill="#fdb462" stroke="black" cx="513" cy="-104" rx="117" ry="18"/>
<text text-anchor="middle" x="513" y="-99.8" font-family="Times,serif" font-size="14.00">VideoCommandRepository</text>
</g>
<!-- VideoCommandRepository&#45;&gt;VideosModule -->
<g id="edge5" class="edge">
<title>VideoCommandRepository&#45;&gt;VideosModule</title>
<path fill="none" stroke="black" d="M513,-122.03C513,-138.4 513,-160 513,-160 513,-160 726.25,-160 726.25,-160"/>
<polygon fill="black" stroke="black" points="726.25,-163.5 736.25,-160 726.24,-156.5 726.25,-163.5"/>
</g>
<!-- VideoQueryRepository -->
<g id="node7" class="node">
<title>VideoQueryRepository</title>
<ellipse fill="#fdb462" stroke="black" cx="277" cy="-104" rx="101.29" ry="18"/>
<text text-anchor="middle" x="277" y="-99.8" font-family="Times,serif" font-size="14.00">VideoQueryRepository</text>
</g>
<!-- VideoQueryRepository&#45;&gt;VideosModule -->
<g id="edge6" class="edge">
<title>VideoQueryRepository&#45;&gt;VideosModule</title>
<path fill="none" stroke="black" d="M277,-122.11C277,-141.34 277,-169 277,-169 277,-169 726.27,-169 726.27,-169"/>
<polygon fill="black" stroke="black" points="726.27,-172.5 736.27,-169 726.27,-165.5 726.27,-172.5"/>
</g>
<!-- VideosService -->
<g id="node8" class="node">
<title>VideosService</title>
<ellipse fill="#fdb462" stroke="black" cx="91" cy="-104" rx="67.19" ry="18"/>
<text text-anchor="middle" x="91" y="-99.8" font-family="Times,serif" font-size="14.00">VideosService</text>
</g>
<!-- VideosService&#45;&gt;VideosModule -->
<g id="edge7" class="edge">
<title>VideosService&#45;&gt;VideosModule</title>
<path fill="none" stroke="black" d="M91,-122.29C91,-144.21 91,-178 91,-178 91,-178 726.3,-178 726.3,-178"/>
<polygon fill="black" stroke="black" points="726.3,-181.5 736.3,-178 726.3,-174.5 726.3,-181.5"/>
</g>
</g>
</svg>
