<?xml version="1.0" encoding="UTF-8" standalone="no"?>
<!DOCTYPE svg PUBLIC "-//W3C//DTD SVG 1.1//EN"
 "http://www.w3.org/Graphics/SVG/1.1/DTD/svg11.dtd">
<!-- Generated by graphviz version 2.47.0 (20210316.0004)
 -->
<!-- Title: dependencies Pages: 1 -->
<svg width="2017pt" height="211pt"
 viewBox="0.00 0.00 2017.00 211.00" xmlns="http://www.w3.org/2000/svg" xmlns:xlink="http://www.w3.org/1999/xlink">
<g id="graph0" class="graph" transform="scale(1 1) rotate(0) translate(4 207)">
<title>dependencies</title>
<polygon fill="white" stroke="transparent" points="-4,4 -4,-207 2013,-207 2013,4 -4,4"/>
<text text-anchor="start" x="983.51" y="-42.4" font-family="Times-12" font-weight="bold" font-size="14.00">Legend</text>
<polygon fill="#ffffb3" stroke="transparent" points="770.5,-10 770.5,-30 790.5,-30 790.5,-10 770.5,-10"/>
<text text-anchor="start" x="794.13" y="-15.4" font-family="Times-12" font-size="14.00"> &#160;Declarations</text>
<polygon fill="#8dd3c7" stroke="transparent" points="883.5,-10 883.5,-30 903.5,-30 903.5,-10 883.5,-10"/>
<text text-anchor="start" x="907.23" y="-15.4" font-family="Times-12" font-size="14.00"> &#160;Module</text>
<polygon fill="#80b1d3" stroke="transparent" points="969.5,-10 969.5,-30 989.5,-30 989.5,-10 969.5,-10"/>
<text text-anchor="start" x="993.28" y="-15.4" font-family="Times-12" font-size="14.00"> &#160;Bootstrap</text>
<polygon fill="#fdb462" stroke="transparent" points="1066.5,-10 1066.5,-30 1086.5,-30 1086.5,-10 1066.5,-10"/>
<text text-anchor="start" x="1090.17" y="-15.4" font-family="Times-12" font-size="14.00"> &#160;Providers</text>
<polygon fill="#fb8072" stroke="transparent" points="1162.5,-10 1162.5,-30 1182.5,-30 1182.5,-10 1162.5,-10"/>
<text text-anchor="start" x="1186.23" y="-15.4" font-family="Times-12" font-size="14.00"> &#160;Exports</text>
<g id="clust1" class="cluster">
<title>cluster_CommentsAggregatorModule</title>
<polygon fill="none" stroke="black" stroke-dasharray="1,5" points="8,-70 8,-195 2001,-195 2001,-70 8,-70"/>
</g>
<g id="clust3" class="cluster">
<title>cluster_CommentsAggregatorModule_imports</title>
<polygon fill="none" stroke="black" points="1483,-78 1483,-130 1993,-130 1993,-78 1483,-78"/>
</g>
<g id="clust6" class="cluster">
<title>cluster_CommentsAggregatorModule_providers</title>
<polygon fill="none" stroke="black" points="16,-78 16,-130 1475,-130 1475,-78 16,-78"/>
</g>
<!-- AppConfigModule -->
<g id="node1" class="node">
<title>AppConfigModule</title>
<polygon fill="#8dd3c7" stroke="black" points="1985.05,-122 1982.05,-126 1961.05,-126 1958.05,-122 1862.95,-122 1862.95,-86 1985.05,-86 1985.05,-122"/>
<text text-anchor="middle" x="1924" y="-99.8" font-family="Times,serif" font-size="14.00">AppConfigModule</text>
</g>
<!-- CommentsAggregatorModule -->
<g id="node4" class="node">
<title>CommentsAggregatorModule</title>
<polygon fill="#8dd3c7" stroke="black" points="1255.97,-187 1252.97,-191 1231.97,-191 1228.97,-187 1072.03,-187 1072.03,-151 1255.97,-151 1255.97,-187"/>
<text text-anchor="middle" x="1164" y="-164.8" font-family="Times,serif" font-size="14.00">CommentsAggregatorModule</text>
</g>
<!-- AppConfigModule&#45;&gt;CommentsAggregatorModule -->
<g id="edge1" class="edge">
<title>AppConfigModule&#45;&gt;CommentsAggregatorModule</title>
<path fill="none" stroke="black" d="M1924,-122.01C1924,-144.49 1924,-180 1924,-180 1924,-180 1266.05,-180 1266.05,-180"/>
<polygon fill="black" stroke="black" points="1266.05,-176.5 1256.05,-180 1266.05,-183.5 1266.05,-176.5"/>
</g>
<!-- CommentAggregatorCacheModule -->
<g id="node2" class="node">
<title>CommentAggregatorCacheModule</title>
<polygon fill="#8dd3c7" stroke="black" points="1844.5,-122 1841.5,-126 1820.5,-126 1817.5,-122 1631.5,-122 1631.5,-86 1844.5,-86 1844.5,-122"/>
<text text-anchor="middle" x="1738" y="-99.8" font-family="Times,serif" font-size="14.00">CommentAggregatorCacheModule</text>
</g>
<!-- CommentAggregatorCacheModule&#45;&gt;CommentsAggregatorModule -->
<g id="edge2" class="edge">
<title>CommentAggregatorCacheModule&#45;&gt;CommentsAggregatorModule</title>
<path fill="none" stroke="black" d="M1738,-122.13C1738,-142.57 1738,-173 1738,-173 1738,-173 1266.22,-173 1266.22,-173"/>
<polygon fill="black" stroke="black" points="1266.22,-169.5 1256.22,-173 1266.22,-176.5 1266.22,-169.5"/>
</g>
<!-- PersistanceModule -->
<g id="node3" class="node">
<title>PersistanceModule</title>
<polygon fill="#8dd3c7" stroke="black" points="1613.02,-122 1610.02,-126 1589.02,-126 1586.02,-122 1490.98,-122 1490.98,-86 1613.02,-86 1613.02,-122"/>
<text text-anchor="middle" x="1552" y="-99.8" font-family="Times,serif" font-size="14.00">PersistanceModule</text>
</g>
<!-- PersistanceModule&#45;&gt;CommentsAggregatorModule -->
<g id="edge3" class="edge">
<title>PersistanceModule&#45;&gt;CommentsAggregatorModule</title>
<path fill="none" stroke="black" d="M1552,-122.27C1552,-140.56 1552,-166 1552,-166 1552,-166 1266.44,-166 1266.44,-166"/>
<polygon fill="black" stroke="black" points="1266.44,-162.5 1256.44,-166 1266.44,-169.5 1266.44,-162.5"/>
</g>
<!-- AppConfigService -->
<g id="node5" class="node">
<title>AppConfigService</title>
<ellipse fill="#fdb462" stroke="black" cx="1384" cy="-104" rx="83.39" ry="18"/>
<text text-anchor="middle" x="1384" y="-99.8" font-family="Times,serif" font-size="14.00">AppConfigService</text>
</g>
<!-- AppConfigService&#45;&gt;CommentsAggregatorModule -->
<g id="edge4" class="edge">
<title>AppConfigService&#45;&gt;CommentsAggregatorModule</title>
<path fill="none" stroke="black" d="M1384,-122.01C1384,-138.05 1384,-159 1384,-159 1384,-159 1266.03,-159 1266.03,-159"/>
<polygon fill="black" stroke="black" points="1266.03,-155.5 1256.03,-159 1266.03,-162.5 1266.03,-155.5"/>
</g>
<!-- CommentAggregateFactory -->
<g id="node6" class="node">
<title>CommentAggregateFactory</title>
<ellipse fill="#fdb462" stroke="black" cx="1164" cy="-104" rx="118.68" ry="18"/>
<text text-anchor="middle" x="1164" y="-99.8" font-family="Times,serif" font-size="14.00">CommentAggregateFactory</text>
</g>
<!-- CommentAggregateFactory&#45;&gt;CommentsAggregatorModule -->
<g id="edge5" class="edge">
<title>CommentAggregateFactory&#45;&gt;CommentsAggregatorModule</title>
<path fill="none" stroke="black" d="M1164,-122.11C1164,-122.11 1164,-140.99 1164,-140.99"/>
<polygon fill="black" stroke="black" points="1160.5,-140.99 1164,-150.99 1167.5,-140.99 1160.5,-140.99"/>
</g>
<!-- CommentAggregatePersistance -->
<g id="node7" class="node">
<title>CommentAggregatePersistance</title>
<ellipse fill="#fdb462" stroke="black" cx="894" cy="-104" rx="132.56" ry="18"/>
<text text-anchor="middle" x="894" y="-99.8" font-family="Times,serif" font-size="14.00">CommentAggregatePersistance</text>
</g>
<!-- CommentAggregatePersistance&#45;&gt;CommentsAggregatorModule -->
<g id="edge6" class="edge">
<title>CommentAggregatePersistance&#45;&gt;CommentsAggregatorModule</title>
<path fill="none" stroke="black" d="M894,-122.01C894,-138.05 894,-159 894,-159 894,-159 1061.84,-159 1061.84,-159"/>
<polygon fill="black" stroke="black" points="1061.84,-162.5 1071.84,-159 1061.84,-155.5 1061.84,-162.5"/>
</g>
<!-- CommentAggregatorCacheService -->
<g id="node8" class="node">
<title>CommentAggregatorCacheService</title>
<ellipse fill="#fdb462" stroke="black" cx="597" cy="-104" rx="146.37" ry="18"/>
<text text-anchor="middle" x="597" y="-99.8" font-family="Times,serif" font-size="14.00">CommentAggregatorCacheService</text>
</g>
<!-- CommentAggregatorCacheService&#45;&gt;CommentsAggregatorModule -->
<g id="edge7" class="edge">
<title>CommentAggregatorCacheService&#45;&gt;CommentsAggregatorModule</title>
<path fill="none" stroke="black" d="M597,-122.27C597,-140.56 597,-166 597,-166 597,-166 1061.96,-166 1061.96,-166"/>
<polygon fill="black" stroke="black" points="1061.96,-169.5 1071.96,-166 1061.96,-162.5 1061.96,-169.5"/>
</g>
<!-- CommentRepo -->
<g id="node9" class="node">
<title>CommentRepo</title>
<ellipse fill="#fdb462" stroke="black" cx="363" cy="-104" rx="69.52" ry="18"/>
<text text-anchor="middle" x="363" y="-99.8" font-family="Times,serif" font-size="14.00">CommentRepo</text>
</g>
<!-- CommentRepo&#45;&gt;CommentsAggregatorModule -->
<g id="edge8" class="edge">
<title>CommentRepo&#45;&gt;CommentsAggregatorModule</title>
<path fill="none" stroke="black" d="M363,-122.13C363,-142.57 363,-173 363,-173 363,-173 1061.72,-173 1061.72,-173"/>
<polygon fill="black" stroke="black" points="1061.72,-176.5 1071.72,-173 1061.72,-169.5 1061.72,-176.5"/>
</g>
<!-- CommentsAggregatorService -->
<g id="node10" class="node">
<title>CommentsAggregatorService</title>
<ellipse fill="#fdb462" stroke="black" cx="150" cy="-104" rx="125.62" ry="18"/>
<text text-anchor="middle" x="150" y="-99.8" font-family="Times,serif" font-size="14.00">CommentsAggregatorService</text>
</g>
<!-- CommentsAggregatorService&#45;&gt;CommentsAggregatorModule -->
<g id="edge9" class="edge">
<title>CommentsAggregatorService&#45;&gt;CommentsAggregatorModule</title>
<path fill="none" stroke="black" d="M150,-122.01C150,-144.49 150,-180 150,-180 150,-180 1061.78,-180 1061.78,-180"/>
<polygon fill="black" stroke="black" points="1061.78,-183.5 1071.78,-180 1061.78,-176.5 1061.78,-183.5"/>
</g>
</g>
</svg>
