<?xml version="1.0" encoding="UTF-8" standalone="no"?>
<!DOCTYPE svg PUBLIC "-//W3C//DTD SVG 1.1//EN"
 "http://www.w3.org/Graphics/SVG/1.1/DTD/svg11.dtd">
<!-- Generated by graphviz version 2.47.0 (20210316.0004)
 -->
<!-- Title: dependencies Pages: 1 -->
<svg width="504pt" height="284pt"
 viewBox="0.00 0.00 504.00 284.00" xmlns="http://www.w3.org/2000/svg" xmlns:xlink="http://www.w3.org/1999/xlink">
<g id="graph0" class="graph" transform="scale(1 1) rotate(0) translate(4 280)">
<title>dependencies</title>
<polygon fill="white" stroke="transparent" points="-4,4 -4,-280 500,-280 500,4 -4,4"/>
<text text-anchor="start" x="227.01" y="-42.4" font-family="Times-12" font-weight="bold" font-size="14.00">Legend</text>
<polygon fill="#ffffb3" stroke="transparent" points="14,-10 14,-30 34,-30 34,-10 14,-10"/>
<text text-anchor="start" x="37.63" y="-15.4" font-family="Times-12" font-size="14.00"> &#160;Declarations</text>
<polygon fill="#8dd3c7" stroke="transparent" points="127,-10 127,-30 147,-30 147,-10 127,-10"/>
<text text-anchor="start" x="150.73" y="-15.4" font-family="Times-12" font-size="14.00"> &#160;Module</text>
<polygon fill="#80b1d3" stroke="transparent" points="213,-10 213,-30 233,-30 233,-10 213,-10"/>
<text text-anchor="start" x="236.78" y="-15.4" font-family="Times-12" font-size="14.00"> &#160;Bootstrap</text>
<polygon fill="#fdb462" stroke="transparent" points="310,-10 310,-30 330,-30 330,-10 310,-10"/>
<text text-anchor="start" x="333.67" y="-15.4" font-family="Times-12" font-size="14.00"> &#160;Providers</text>
<polygon fill="#fb8072" stroke="transparent" points="406,-10 406,-30 426,-30 426,-10 406,-10"/>
<text text-anchor="start" x="429.73" y="-15.4" font-family="Times-12" font-size="14.00"> &#160;Exports</text>
<g id="clust1" class="cluster">
<title>cluster_CommentsCacheModule</title>
<polygon fill="none" stroke="black" stroke-dasharray="1,5" points="53,-70 53,-268 443,-268 443,-70 53,-70"/>
</g>
<g id="clust6" class="cluster">
<title>cluster_CommentsCacheModule_providers</title>
<polygon fill="none" stroke="black" points="207,-78 207,-130 435,-130 435,-78 207,-78"/>
</g>
<g id="clust3" class="cluster">
<title>cluster_CommentsCacheModule_imports</title>
<polygon fill="none" stroke="black" points="61,-78 61,-130 199,-130 199,-78 61,-78"/>
</g>
<g id="clust4" class="cluster">
<title>cluster_CommentsCacheModule_exports</title>
<polygon fill="none" stroke="black" points="147,-208 147,-260 321,-260 321,-208 147,-208"/>
</g>
<!-- AppConfigModule -->
<g id="node1" class="node">
<title>AppConfigModule</title>
<polygon fill="#8dd3c7" stroke="black" points="191.05,-122 188.05,-126 167.05,-126 164.05,-122 68.95,-122 68.95,-86 191.05,-86 191.05,-122"/>
<text text-anchor="middle" x="130" y="-99.8" font-family="Times,serif" font-size="14.00">AppConfigModule</text>
</g>
<!-- CommentsCacheModule -->
<g id="node2" class="node">
<title>CommentsCacheModule</title>
<polygon fill="#8dd3c7" stroke="black" points="311.7,-187 308.7,-191 287.7,-191 284.7,-187 156.3,-187 156.3,-151 311.7,-151 311.7,-187"/>
<text text-anchor="middle" x="234" y="-164.8" font-family="Times,serif" font-size="14.00">CommentsCacheModule</text>
</g>
<!-- AppConfigModule&#45;&gt;CommentsCacheModule -->
<g id="edge1" class="edge">
<title>AppConfigModule&#45;&gt;CommentsCacheModule</title>
<path fill="none" stroke="black" d="M173.84,-122.11C173.84,-122.11 173.84,-140.99 173.84,-140.99"/>
<polygon fill="black" stroke="black" points="170.34,-140.99 173.84,-150.99 177.34,-140.99 170.34,-140.99"/>
</g>
<!-- CommentsCacheService  -->
<g id="node3" class="node">
<title>CommentsCacheService </title>
<polygon fill="#fb8072" stroke="black" points="312.63,-252 155.37,-252 155.37,-216 312.63,-216 312.63,-252"/>
<text text-anchor="middle" x="234" y="-229.8" font-family="Times,serif" font-size="14.00">CommentsCacheService </text>
</g>
<!-- CommentsCacheModule&#45;&gt;CommentsCacheService  -->
<g id="edge2" class="edge">
<title>CommentsCacheModule&#45;&gt;CommentsCacheService </title>
<path fill="none" stroke="black" stroke-dasharray="5,2" d="M234,-187.11C234,-187.11 234,-205.99 234,-205.99"/>
<polygon fill="black" stroke="black" points="230.5,-205.99 234,-215.99 237.5,-205.99 230.5,-205.99"/>
</g>
<!-- CommentsCacheService -->
<g id="node4" class="node">
<title>CommentsCacheService</title>
<ellipse fill="#fdb462" stroke="black" cx="321" cy="-104" rx="105.94" ry="18"/>
<text text-anchor="middle" x="321" y="-99.8" font-family="Times,serif" font-size="14.00">CommentsCacheService</text>
</g>
<!-- CommentsCacheService&#45;&gt;CommentsCacheModule -->
<g id="edge3" class="edge">
<title>CommentsCacheService&#45;&gt;CommentsCacheModule</title>
<path fill="none" stroke="black" d="M263.32,-119.4C263.32,-119.4 263.32,-140.94 263.32,-140.94"/>
<polygon fill="black" stroke="black" points="259.82,-140.94 263.32,-150.94 266.82,-140.94 259.82,-140.94"/>
</g>
</g>
</svg>
