<?xml version="1.0" encoding="UTF-8" standalone="no"?>
<!DOCTYPE svg PUBLIC "-//W3C//DTD SVG 1.1//EN"
 "http://www.w3.org/Graphics/SVG/1.1/DTD/svg11.dtd">
<!-- Generated by graphviz version 2.47.0 (20210316.0004)
 -->
<!-- Title: dependencies Pages: 1 -->
<svg width="1621pt" height="211pt"
 viewBox="0.00 0.00 1621.00 211.00" xmlns="http://www.w3.org/2000/svg" xmlns:xlink="http://www.w3.org/1999/xlink">
<g id="graph0" class="graph" transform="scale(1 1) rotate(0) translate(4 207)">
<title>dependencies</title>
<polygon fill="white" stroke="transparent" points="-4,4 -4,-207 1617,-207 1617,4 -4,4"/>
<text text-anchor="start" x="785.51" y="-42.4" font-family="Times-12" font-weight="bold" font-size="14.00">Legend</text>
<polygon fill="#ffffb3" stroke="transparent" points="572.5,-10 572.5,-30 592.5,-30 592.5,-10 572.5,-10"/>
<text text-anchor="start" x="596.13" y="-15.4" font-family="Times-12" font-size="14.00"> &#160;Declarations</text>
<polygon fill="#8dd3c7" stroke="transparent" points="685.5,-10 685.5,-30 705.5,-30 705.5,-10 685.5,-10"/>
<text text-anchor="start" x="709.23" y="-15.4" font-family="Times-12" font-size="14.00"> &#160;Module</text>
<polygon fill="#80b1d3" stroke="transparent" points="771.5,-10 771.5,-30 791.5,-30 791.5,-10 771.5,-10"/>
<text text-anchor="start" x="795.28" y="-15.4" font-family="Times-12" font-size="14.00"> &#160;Bootstrap</text>
<polygon fill="#fdb462" stroke="transparent" points="868.5,-10 868.5,-30 888.5,-30 888.5,-10 868.5,-10"/>
<text text-anchor="start" x="892.17" y="-15.4" font-family="Times-12" font-size="14.00"> &#160;Providers</text>
<polygon fill="#fb8072" stroke="transparent" points="964.5,-10 964.5,-30 984.5,-30 984.5,-10 964.5,-10"/>
<text text-anchor="start" x="988.23" y="-15.4" font-family="Times-12" font-size="14.00"> &#160;Exports</text>
<g id="clust1" class="cluster">
<title>cluster_HubModule</title>
<polygon fill="none" stroke="black" stroke-dasharray="1,5" points="8,-70 8,-195 1605,-195 1605,-70 8,-70"/>
</g>
<g id="clust3" class="cluster">
<title>cluster_HubModule_imports</title>
<polygon fill="none" stroke="black" points="1459,-78 1459,-130 1597,-130 1597,-78 1459,-78"/>
</g>
<g id="clust6" class="cluster">
<title>cluster_HubModule_providers</title>
<polygon fill="none" stroke="black" points="16,-78 16,-130 1451,-130 1451,-78 16,-78"/>
</g>
<!-- PersistanceModule -->
<g id="node1" class="node">
<title>PersistanceModule</title>
<polygon fill="#8dd3c7" stroke="black" points="1589.02,-122 1586.02,-126 1565.02,-126 1562.02,-122 1466.98,-122 1466.98,-86 1589.02,-86 1589.02,-122"/>
<text text-anchor="middle" x="1528" y="-99.8" font-family="Times,serif" font-size="14.00">PersistanceModule</text>
</g>
<!-- HubModule -->
<g id="node2" class="node">
<title>HubModule</title>
<polygon fill="#8dd3c7" stroke="black" points="826.66,-187 823.66,-191 802.66,-191 799.66,-187 743.34,-187 743.34,-151 826.66,-151 826.66,-187"/>
<text text-anchor="middle" x="785" y="-164.8" font-family="Times,serif" font-size="14.00">HubModule</text>
</g>
<!-- PersistanceModule&#45;&gt;HubModule -->
<g id="edge1" class="edge">
<title>PersistanceModule&#45;&gt;HubModule</title>
<path fill="none" stroke="black" d="M1528,-122.29C1528,-144.21 1528,-178 1528,-178 1528,-178 836.81,-178 836.81,-178"/>
<polygon fill="black" stroke="black" points="836.81,-174.5 826.81,-178 836.81,-181.5 836.81,-174.5"/>
</g>
<!-- AppConfigService -->
<g id="node3" class="node">
<title>AppConfigService</title>
<ellipse fill="#fdb462" stroke="black" cx="1360" cy="-104" rx="83.39" ry="18"/>
<text text-anchor="middle" x="1360" y="-99.8" font-family="Times,serif" font-size="14.00">AppConfigService</text>
</g>
<!-- AppConfigService&#45;&gt;HubModule -->
<g id="edge2" class="edge">
<title>AppConfigService&#45;&gt;HubModule</title>
<path fill="none" stroke="black" d="M1360,-122.11C1360,-141.34 1360,-169 1360,-169 1360,-169 836.82,-169 836.82,-169"/>
<polygon fill="black" stroke="black" points="836.82,-165.5 826.82,-169 836.82,-172.5 836.82,-165.5"/>
</g>
<!-- HubAggregateFactory -->
<g id="node4" class="node">
<title>HubAggregateFactory</title>
<ellipse fill="#fdb462" stroke="black" cx="1161" cy="-104" rx="97.25" ry="18"/>
<text text-anchor="middle" x="1161" y="-99.8" font-family="Times,serif" font-size="14.00">HubAggregateFactory</text>
</g>
<!-- HubAggregateFactory&#45;&gt;HubModule -->
<g id="edge3" class="edge">
<title>HubAggregateFactory&#45;&gt;HubModule</title>
<path fill="none" stroke="black" d="M1161,-122.03C1161,-138.4 1161,-160 1161,-160 1161,-160 836.68,-160 836.68,-160"/>
<polygon fill="black" stroke="black" points="836.68,-156.5 826.68,-160 836.68,-163.5 836.68,-156.5"/>
</g>
<!-- HubAggregatePersistanceACL -->
<g id="node5" class="node">
<title>HubAggregatePersistanceACL</title>
<ellipse fill="#fdb462" stroke="black" cx="915" cy="-104" rx="130.76" ry="18"/>
<text text-anchor="middle" x="915" y="-99.8" font-family="Times,serif" font-size="14.00">HubAggregatePersistanceACL</text>
</g>
<!-- HubAggregatePersistanceACL&#45;&gt;HubModule -->
<g id="edge4" class="edge">
<title>HubAggregatePersistanceACL&#45;&gt;HubModule</title>
<path fill="none" stroke="black" d="M805.6,-113.87C805.6,-113.87 805.6,-140.91 805.6,-140.91"/>
<polygon fill="black" stroke="black" points="802.1,-140.91 805.6,-150.91 809.1,-140.91 802.1,-140.91"/>
</g>
<!-- HubCommandRepository -->
<g id="node6" class="node">
<title>HubCommandRepository</title>
<ellipse fill="#fdb462" stroke="black" cx="656" cy="-104" rx="110.06" ry="18"/>
<text text-anchor="middle" x="656" y="-99.8" font-family="Times,serif" font-size="14.00">HubCommandRepository</text>
</g>
<!-- HubCommandRepository&#45;&gt;HubModule -->
<g id="edge5" class="edge">
<title>HubCommandRepository&#45;&gt;HubModule</title>
<path fill="none" stroke="black" d="M754.73,-112.23C754.73,-112.23 754.73,-140.76 754.73,-140.76"/>
<polygon fill="black" stroke="black" points="751.23,-140.76 754.73,-150.76 758.23,-140.76 751.23,-140.76"/>
</g>
<!-- HubQueryRepository -->
<g id="node7" class="node">
<title>HubQueryRepository</title>
<ellipse fill="#fdb462" stroke="black" cx="434" cy="-104" rx="94.35" ry="18"/>
<text text-anchor="middle" x="434" y="-99.8" font-family="Times,serif" font-size="14.00">HubQueryRepository</text>
</g>
<!-- HubQueryRepository&#45;&gt;HubModule -->
<g id="edge6" class="edge">
<title>HubQueryRepository&#45;&gt;HubModule</title>
<path fill="none" stroke="black" d="M434,-122.03C434,-138.4 434,-160 434,-160 434,-160 733.01,-160 733.01,-160"/>
<polygon fill="black" stroke="black" points="733.01,-163.5 743.01,-160 733.01,-156.5 733.01,-163.5"/>
</g>
<!-- HubService -->
<g id="node8" class="node">
<title>HubService</title>
<ellipse fill="#fdb462" stroke="black" cx="265" cy="-104" rx="56.74" ry="18"/>
<text text-anchor="middle" x="265" y="-99.8" font-family="Times,serif" font-size="14.00">HubService</text>
</g>
<!-- HubService&#45;&gt;HubModule -->
<g id="edge7" class="edge">
<title>HubService&#45;&gt;HubModule</title>
<path fill="none" stroke="black" d="M265,-122.11C265,-141.34 265,-169 265,-169 265,-169 733.33,-169 733.33,-169"/>
<polygon fill="black" stroke="black" points="733.33,-172.5 743.33,-169 733.33,-165.5 733.33,-172.5"/>
</g>
<!-- PersistanceService -->
<g id="node9" class="node">
<title>PersistanceService</title>
<ellipse fill="#fdb462" stroke="black" cx="107" cy="-104" rx="83.36" ry="18"/>
<text text-anchor="middle" x="107" y="-99.8" font-family="Times,serif" font-size="14.00">PersistanceService</text>
</g>
<!-- PersistanceService&#45;&gt;HubModule -->
<g id="edge8" class="edge">
<title>PersistanceService&#45;&gt;HubModule</title>
<path fill="none" stroke="black" d="M107,-122.29C107,-144.21 107,-178 107,-178 107,-178 733.1,-178 733.1,-178"/>
<polygon fill="black" stroke="black" points="733.1,-181.5 743.1,-178 733.1,-174.5 733.1,-181.5"/>
</g>
</g>
</svg>
