<?xml version="1.0" encoding="UTF-8" standalone="no"?>
<!DOCTYPE svg PUBLIC "-//W3C//DTD SVG 1.1//EN"
 "http://www.w3.org/Graphics/SVG/1.1/DTD/svg11.dtd">
<!-- Generated by graphviz version 2.47.0 (20210316.0004)
 -->
<!-- Title: dependencies Pages: 1 -->
<svg width="1101pt" height="284pt"
 viewBox="0.00 0.00 1101.00 284.00" xmlns="http://www.w3.org/2000/svg" xmlns:xlink="http://www.w3.org/1999/xlink">
<g id="graph0" class="graph" transform="scale(1 1) rotate(0) translate(4 280)">
<title>dependencies</title>
<polygon fill="white" stroke="transparent" points="-4,4 -4,-280 1097,-280 1097,4 -4,4"/>
<text text-anchor="start" x="525.51" y="-42.4" font-family="Times-12" font-weight="bold" font-size="14.00">Legend</text>
<polygon fill="#ffffb3" stroke="transparent" points="312.5,-10 312.5,-30 332.5,-30 332.5,-10 312.5,-10"/>
<text text-anchor="start" x="336.13" y="-15.4" font-family="Times-12" font-size="14.00"> &#160;Declarations</text>
<polygon fill="#8dd3c7" stroke="transparent" points="425.5,-10 425.5,-30 445.5,-30 445.5,-10 425.5,-10"/>
<text text-anchor="start" x="449.23" y="-15.4" font-family="Times-12" font-size="14.00"> &#160;Module</text>
<polygon fill="#80b1d3" stroke="transparent" points="511.5,-10 511.5,-30 531.5,-30 531.5,-10 511.5,-10"/>
<text text-anchor="start" x="535.28" y="-15.4" font-family="Times-12" font-size="14.00"> &#160;Bootstrap</text>
<polygon fill="#fdb462" stroke="transparent" points="608.5,-10 608.5,-30 628.5,-30 628.5,-10 608.5,-10"/>
<text text-anchor="start" x="632.17" y="-15.4" font-family="Times-12" font-size="14.00"> &#160;Providers</text>
<polygon fill="#fb8072" stroke="transparent" points="704.5,-10 704.5,-30 724.5,-30 724.5,-10 704.5,-10"/>
<text text-anchor="start" x="728.23" y="-15.4" font-family="Times-12" font-size="14.00"> &#160;Exports</text>
<g id="clust1" class="cluster">
<title>cluster_AggregatorCacheModule</title>
<polygon fill="none" stroke="black" stroke-dasharray="1,5" points="8,-70 8,-268 1085,-268 1085,-70 8,-70"/>
</g>
<g id="clust3" class="cluster">
<title>cluster_AggregatorCacheModule_imports</title>
<polygon fill="none" stroke="black" points="833,-78 833,-130 1077,-130 1077,-78 833,-78"/>
</g>
<g id="clust4" class="cluster">
<title>cluster_AggregatorCacheModule_exports</title>
<polygon fill="none" stroke="black" points="508,-208 508,-260 684,-260 684,-208 508,-208"/>
</g>
<g id="clust6" class="cluster">
<title>cluster_AggregatorCacheModule_providers</title>
<polygon fill="none" stroke="black" points="16,-78 16,-130 825,-130 825,-78 16,-78"/>
</g>
<!-- AppConfigModule -->
<g id="node1" class="node">
<title>AppConfigModule</title>
<polygon fill="#8dd3c7" stroke="black" points="1069.05,-122 1066.05,-126 1045.05,-126 1042.05,-122 946.95,-122 946.95,-86 1069.05,-86 1069.05,-122"/>
<text text-anchor="middle" x="1008" y="-99.8" font-family="Times,serif" font-size="14.00">AppConfigModule</text>
</g>
<!-- AggregatorCacheModule -->
<g id="node3" class="node">
<title>AggregatorCacheModule</title>
<polygon fill="#8dd3c7" stroke="black" points="675.28,-187 672.28,-191 651.28,-191 648.28,-187 516.72,-187 516.72,-151 675.28,-151 675.28,-187"/>
<text text-anchor="middle" x="596" y="-164.8" font-family="Times,serif" font-size="14.00">AggregatorCacheModule</text>
</g>
<!-- AppConfigModule&#45;&gt;AggregatorCacheModule -->
<g id="edge1" class="edge">
<title>AppConfigModule&#45;&gt;AggregatorCacheModule</title>
<path fill="none" stroke="black" d="M1008,-122.28C1008,-143.32 1008,-175 1008,-175 1008,-175 685.44,-175 685.44,-175"/>
<polygon fill="black" stroke="black" points="685.44,-171.5 675.44,-175 685.44,-178.5 685.44,-171.5"/>
</g>
<!-- LogsModule -->
<g id="node2" class="node">
<title>LogsModule</title>
<polygon fill="#8dd3c7" stroke="black" points="928.55,-122 925.55,-126 904.55,-126 901.55,-122 841.45,-122 841.45,-86 928.55,-86 928.55,-122"/>
<text text-anchor="middle" x="885" y="-99.8" font-family="Times,serif" font-size="14.00">LogsModule</text>
</g>
<!-- LogsModule&#45;&gt;AggregatorCacheModule -->
<g id="edge2" class="edge">
<title>LogsModule&#45;&gt;AggregatorCacheModule</title>
<path fill="none" stroke="black" d="M885,-122.02C885,-139.37 885,-163 885,-163 885,-163 685.35,-163 685.35,-163"/>
<polygon fill="black" stroke="black" points="685.35,-159.5 675.35,-163 685.35,-166.5 685.35,-159.5"/>
</g>
<!-- AggregatorCacheService  -->
<g id="node4" class="node">
<title>AggregatorCacheService </title>
<polygon fill="#fb8072" stroke="black" points="676.21,-252 515.79,-252 515.79,-216 676.21,-216 676.21,-252"/>
<text text-anchor="middle" x="596" y="-229.8" font-family="Times,serif" font-size="14.00">AggregatorCacheService </text>
</g>
<!-- AggregatorCacheModule&#45;&gt;AggregatorCacheService  -->
<g id="edge3" class="edge">
<title>AggregatorCacheModule&#45;&gt;AggregatorCacheService </title>
<path fill="none" stroke="black" stroke-dasharray="5,2" d="M596,-187.11C596,-187.11 596,-205.99 596,-205.99"/>
<polygon fill="black" stroke="black" points="592.5,-205.99 596,-215.99 599.5,-205.99 592.5,-205.99"/>
</g>
<!-- AggregatorCacheService -->
<g id="node5" class="node">
<title>AggregatorCacheService</title>
<ellipse fill="#fdb462" stroke="black" cx="709" cy="-104" rx="108.19" ry="18"/>
<text text-anchor="middle" x="709" y="-99.8" font-family="Times,serif" font-size="14.00">AggregatorCacheService</text>
</g>
<!-- AggregatorCacheService&#45;&gt;AggregatorCacheModule -->
<g id="edge4" class="edge">
<title>AggregatorCacheService&#45;&gt;AggregatorCacheModule</title>
<path fill="none" stroke="black" d="M638.02,-117.78C638.02,-117.78 638.02,-140.55 638.02,-140.55"/>
<polygon fill="black" stroke="black" points="634.52,-140.55 638.02,-150.55 641.52,-140.55 634.52,-140.55"/>
</g>
<!-- LikeAggregateFactory -->
<g id="node6" class="node">
<title>LikeAggregateFactory</title>
<ellipse fill="#fdb462" stroke="black" cx="484" cy="-104" rx="98.39" ry="18"/>
<text text-anchor="middle" x="484" y="-99.8" font-family="Times,serif" font-size="14.00">LikeAggregateFactory</text>
</g>
<!-- LikeAggregateFactory&#45;&gt;AggregatorCacheModule -->
<g id="edge5" class="edge">
<title>LikeAggregateFactory&#45;&gt;AggregatorCacheModule</title>
<path fill="none" stroke="black" d="M549.65,-117.47C549.65,-117.47 549.65,-140.86 549.65,-140.86"/>
<polygon fill="black" stroke="black" points="546.15,-140.86 549.65,-150.86 553.15,-140.86 546.15,-140.86"/>
</g>
<!-- LikePersistanceACL -->
<g id="node7" class="node">
<title>LikePersistanceACL</title>
<ellipse fill="#fdb462" stroke="black" cx="276" cy="-104" rx="91.47" ry="18"/>
<text text-anchor="middle" x="276" y="-99.8" font-family="Times,serif" font-size="14.00">LikePersistanceACL</text>
</g>
<!-- LikePersistanceACL&#45;&gt;AggregatorCacheModule -->
<g id="edge6" class="edge">
<title>LikePersistanceACL&#45;&gt;AggregatorCacheModule</title>
<path fill="none" stroke="black" d="M276,-122.02C276,-139.37 276,-163 276,-163 276,-163 506.49,-163 506.49,-163"/>
<polygon fill="black" stroke="black" points="506.49,-166.5 516.49,-163 506.49,-159.5 506.49,-166.5"/>
</g>
<!-- LikeRepository -->
<g id="node8" class="node">
<title>LikeRepository</title>
<ellipse fill="#fdb462" stroke="black" cx="95" cy="-104" rx="71.23" ry="18"/>
<text text-anchor="middle" x="95" y="-99.8" font-family="Times,serif" font-size="14.00">LikeRepository</text>
</g>
<!-- LikeRepository&#45;&gt;AggregatorCacheModule -->
<g id="edge7" class="edge">
<title>LikeRepository&#45;&gt;AggregatorCacheModule</title>
<path fill="none" stroke="black" d="M95,-122.28C95,-143.32 95,-175 95,-175 95,-175 506.62,-175 506.62,-175"/>
<polygon fill="black" stroke="black" points="506.62,-178.5 516.62,-175 506.62,-171.5 506.62,-178.5"/>
</g>
</g>
</svg>
