<?xml version="1.0" encoding="UTF-8" standalone="no"?>
<!DOCTYPE svg PUBLIC "-//W3C//DTD SVG 1.1//EN"
 "http://www.w3.org/Graphics/SVG/1.1/DTD/svg11.dtd">
<!-- Generated by graphviz version 2.47.0 (20210316.0004)
 -->
<!-- Title: dependencies Pages: 1 -->
<svg width="522pt" height="211pt"
 viewBox="0.00 0.00 522.00 211.00" xmlns="http://www.w3.org/2000/svg" xmlns:xlink="http://www.w3.org/1999/xlink">
<g id="graph0" class="graph" transform="scale(1 1) rotate(0) translate(4 207)">
<title>dependencies</title>
<polygon fill="white" stroke="transparent" points="-4,4 -4,-207 518,-207 518,4 -4,4"/>
<text text-anchor="start" x="236.01" y="-42.4" font-family="Times-12" font-weight="bold" font-size="14.00">Legend</text>
<polygon fill="#ffffb3" stroke="transparent" points="23,-10 23,-30 43,-30 43,-10 23,-10"/>
<text text-anchor="start" x="46.63" y="-15.4" font-family="Times-12" font-size="14.00"> &#160;Declarations</text>
<polygon fill="#8dd3c7" stroke="transparent" points="136,-10 136,-30 156,-30 156,-10 136,-10"/>
<text text-anchor="start" x="159.73" y="-15.4" font-family="Times-12" font-size="14.00"> &#160;Module</text>
<polygon fill="#80b1d3" stroke="transparent" points="222,-10 222,-30 242,-30 242,-10 222,-10"/>
<text text-anchor="start" x="245.78" y="-15.4" font-family="Times-12" font-size="14.00"> &#160;Bootstrap</text>
<polygon fill="#fdb462" stroke="transparent" points="319,-10 319,-30 339,-30 339,-10 319,-10"/>
<text text-anchor="start" x="342.67" y="-15.4" font-family="Times-12" font-size="14.00"> &#160;Providers</text>
<polygon fill="#fb8072" stroke="transparent" points="415,-10 415,-30 435,-30 435,-10 415,-10"/>
<text text-anchor="start" x="438.73" y="-15.4" font-family="Times-12" font-size="14.00"> &#160;Exports</text>
<g id="clust1" class="cluster">
<title>cluster_VideoTranscoderModule</title>
<polygon fill="none" stroke="black" stroke-dasharray="1,5" points="8,-70 8,-195 506,-195 506,-70 8,-70"/>
</g>
<g id="clust3" class="cluster">
<title>cluster_VideoTranscoderModule_imports</title>
<polygon fill="none" stroke="black" points="254,-78 254,-130 498,-130 498,-78 254,-78"/>
</g>
<g id="clust6" class="cluster">
<title>cluster_VideoTranscoderModule_providers</title>
<polygon fill="none" stroke="black" points="16,-78 16,-130 246,-130 246,-78 16,-78"/>
</g>
<!-- AppConfigModule -->
<g id="node1" class="node">
<title>AppConfigModule</title>
<polygon fill="#8dd3c7" stroke="black" points="490.05,-122 487.05,-126 466.05,-126 463.05,-122 367.95,-122 367.95,-86 490.05,-86 490.05,-122"/>
<text text-anchor="middle" x="429" y="-99.8" font-family="Times,serif" font-size="14.00">AppConfigModule</text>
</g>
<!-- VideoTranscoderModule -->
<g id="node3" class="node">
<title>VideoTranscoderModule</title>
<polygon fill="#8dd3c7" stroke="black" points="384.22,-187 381.22,-191 360.22,-191 357.22,-187 227.78,-187 227.78,-151 384.22,-151 384.22,-187"/>
<text text-anchor="middle" x="306" y="-164.8" font-family="Times,serif" font-size="14.00">VideoTranscoderModule</text>
</g>
<!-- AppConfigModule&#45;&gt;VideoTranscoderModule -->
<g id="edge1" class="edge">
<title>AppConfigModule&#45;&gt;VideoTranscoderModule</title>
<path fill="none" stroke="black" d="M376.04,-122.11C376.04,-122.11 376.04,-140.99 376.04,-140.99"/>
<polygon fill="black" stroke="black" points="372.54,-140.99 376.04,-150.99 379.54,-140.99 372.54,-140.99"/>
</g>
<!-- LogsModule -->
<g id="node2" class="node">
<title>LogsModule</title>
<polygon fill="#8dd3c7" stroke="black" points="349.55,-122 346.55,-126 325.55,-126 322.55,-122 262.45,-122 262.45,-86 349.55,-86 349.55,-122"/>
<text text-anchor="middle" x="306" y="-99.8" font-family="Times,serif" font-size="14.00">LogsModule</text>
</g>
<!-- LogsModule&#45;&gt;VideoTranscoderModule -->
<g id="edge2" class="edge">
<title>LogsModule&#45;&gt;VideoTranscoderModule</title>
<path fill="none" stroke="black" d="M306,-122.11C306,-122.11 306,-140.99 306,-140.99"/>
<polygon fill="black" stroke="black" points="302.5,-140.99 306,-150.99 309.5,-140.99 302.5,-140.99"/>
</g>
<!-- VideoTranscoderService -->
<g id="node4" class="node">
<title>VideoTranscoderService</title>
<ellipse fill="#fdb462" stroke="black" cx="131" cy="-104" rx="107.04" ry="18"/>
<text text-anchor="middle" x="131" y="-99.8" font-family="Times,serif" font-size="14.00">VideoTranscoderService</text>
</g>
<!-- VideoTranscoderService&#45;&gt;VideoTranscoderModule -->
<g id="edge3" class="edge">
<title>VideoTranscoderService&#45;&gt;VideoTranscoderModule</title>
<path fill="none" stroke="black" d="M232.83,-109.54C232.83,-109.54 232.83,-140.75 232.83,-140.75"/>
<polygon fill="black" stroke="black" points="229.33,-140.75 232.83,-150.75 236.33,-140.75 229.33,-140.75"/>
</g>
</g>
</svg>
