<?xml version="1.0" encoding="UTF-8" standalone="no"?>
<!DOCTYPE svg PUBLIC "-//W3C//DTD SVG 1.1//EN"
 "http://www.w3.org/Graphics/SVG/1.1/DTD/svg11.dtd">
<!-- Generated by graphviz version 2.47.0 (20210316.0004)
 -->
<!-- Title: dependencies Pages: 1 -->
<svg width="562pt" height="211pt"
 viewBox="0.00 0.00 562.00 211.00" xmlns="http://www.w3.org/2000/svg" xmlns:xlink="http://www.w3.org/1999/xlink">
<g id="graph0" class="graph" transform="scale(1 1) rotate(0) translate(4 207)">
<title>dependencies</title>
<polygon fill="white" stroke="transparent" points="-4,4 -4,-207 558,-207 558,4 -4,4"/>
<text text-anchor="start" x="256.01" y="-42.4" font-family="Times-12" font-weight="bold" font-size="14.00">Legend</text>
<polygon fill="#ffffb3" stroke="transparent" points="43,-10 43,-30 63,-30 63,-10 43,-10"/>
<text text-anchor="start" x="66.63" y="-15.4" font-family="Times-12" font-size="14.00"> &#160;Declarations</text>
<polygon fill="#8dd3c7" stroke="transparent" points="156,-10 156,-30 176,-30 176,-10 156,-10"/>
<text text-anchor="start" x="179.73" y="-15.4" font-family="Times-12" font-size="14.00"> &#160;Module</text>
<polygon fill="#80b1d3" stroke="transparent" points="242,-10 242,-30 262,-30 262,-10 242,-10"/>
<text text-anchor="start" x="265.78" y="-15.4" font-family="Times-12" font-size="14.00"> &#160;Bootstrap</text>
<polygon fill="#fdb462" stroke="transparent" points="339,-10 339,-30 359,-30 359,-10 339,-10"/>
<text text-anchor="start" x="362.67" y="-15.4" font-family="Times-12" font-size="14.00"> &#160;Providers</text>
<polygon fill="#fb8072" stroke="transparent" points="435,-10 435,-30 455,-30 455,-10 435,-10"/>
<text text-anchor="start" x="458.73" y="-15.4" font-family="Times-12" font-size="14.00"> &#160;Exports</text>
<g id="clust1" class="cluster">
<title>cluster_VideoModule</title>
<polygon fill="none" stroke="black" stroke-dasharray="1,5" points="8,-70 8,-195 546,-195 546,-70 8,-70"/>
</g>
<g id="clust3" class="cluster">
<title>cluster_VideoModule_imports</title>
<polygon fill="none" stroke="black" points="168,-78 168,-130 538,-130 538,-78 168,-78"/>
</g>
<g id="clust6" class="cluster">
<title>cluster_VideoModule_providers</title>
<polygon fill="none" stroke="black" points="16,-78 16,-130 160,-130 160,-78 16,-78"/>
</g>
<!-- AppConfigModule -->
<g id="node1" class="node">
<title>AppConfigModule</title>
<polygon fill="#8dd3c7" stroke="black" points="530.05,-122 527.05,-126 506.05,-126 503.05,-122 407.95,-122 407.95,-86 530.05,-86 530.05,-122"/>
<text text-anchor="middle" x="469" y="-99.8" font-family="Times,serif" font-size="14.00">AppConfigModule</text>
</g>
<!-- VideoModule -->
<g id="node4" class="node">
<title>VideoModule</title>
<polygon fill="#8dd3c7" stroke="black" points="276.76,-187 273.76,-191 252.76,-191 249.76,-187 183.24,-187 183.24,-151 276.76,-151 276.76,-187"/>
<text text-anchor="middle" x="230" y="-164.8" font-family="Times,serif" font-size="14.00">VideoModule</text>
</g>
<!-- AppConfigModule&#45;&gt;VideoModule -->
<g id="edge1" class="edge">
<title>AppConfigModule&#45;&gt;VideoModule</title>
<path fill="none" stroke="black" d="M469,-122.28C469,-143.32 469,-175 469,-175 469,-175 286.93,-175 286.93,-175"/>
<polygon fill="black" stroke="black" points="286.93,-171.5 276.93,-175 286.93,-178.5 286.93,-171.5"/>
</g>
<!-- LogsModule -->
<g id="node2" class="node">
<title>LogsModule</title>
<polygon fill="#8dd3c7" stroke="black" points="389.55,-122 386.55,-126 365.55,-126 362.55,-122 302.45,-122 302.45,-86 389.55,-86 389.55,-122"/>
<text text-anchor="middle" x="346" y="-99.8" font-family="Times,serif" font-size="14.00">LogsModule</text>
</g>
<!-- LogsModule&#45;&gt;VideoModule -->
<g id="edge2" class="edge">
<title>LogsModule&#45;&gt;VideoModule</title>
<path fill="none" stroke="black" d="M346,-122.02C346,-139.37 346,-163 346,-163 346,-163 286.85,-163 286.85,-163"/>
<polygon fill="black" stroke="black" points="286.85,-159.5 276.85,-163 286.85,-166.5 286.85,-159.5"/>
</g>
<!-- MeasureModule -->
<g id="node3" class="node">
<title>MeasureModule</title>
<polygon fill="#8dd3c7" stroke="black" points="283.74,-122 280.74,-126 259.74,-126 256.74,-122 176.26,-122 176.26,-86 283.74,-86 283.74,-122"/>
<text text-anchor="middle" x="230" y="-99.8" font-family="Times,serif" font-size="14.00">MeasureModule</text>
</g>
<!-- MeasureModule&#45;&gt;VideoModule -->
<g id="edge3" class="edge">
<title>MeasureModule&#45;&gt;VideoModule</title>
<path fill="none" stroke="black" d="M214.37,-122.11C214.37,-122.11 214.37,-140.99 214.37,-140.99"/>
<polygon fill="black" stroke="black" points="210.87,-140.99 214.37,-150.99 217.87,-140.99 210.87,-140.99"/>
</g>
<!-- MeasureModule&#45;&gt;VideoModule -->
<g id="edge4" class="edge">
<title>MeasureModule&#45;&gt;VideoModule</title>
<path fill="none" stroke="black" d="M245.63,-122.11C245.63,-122.11 245.63,-140.99 245.63,-140.99"/>
<polygon fill="black" stroke="black" points="242.13,-140.99 245.63,-150.99 249.13,-140.99 242.13,-140.99"/>
</g>
<!-- VideoService -->
<g id="node5" class="node">
<title>VideoService</title>
<ellipse fill="#fdb462" stroke="black" cx="88" cy="-104" rx="63.68" ry="18"/>
<text text-anchor="middle" x="88" y="-99.8" font-family="Times,serif" font-size="14.00">VideoService</text>
</g>
<!-- VideoService&#45;&gt;VideoModule -->
<g id="edge5" class="edge">
<title>VideoService&#45;&gt;VideoModule</title>
<path fill="none" stroke="black" d="M88,-122.11C88,-141.34 88,-169 88,-169 88,-169 173.11,-169 173.11,-169"/>
<polygon fill="black" stroke="black" points="173.11,-172.5 183.11,-169 173.11,-165.5 173.11,-172.5"/>
</g>
</g>
</svg>
