<?xml version="1.0" encoding="UTF-8" standalone="no"?>
<!DOCTYPE svg PUBLIC "-//W3C//DTD SVG 1.1//EN"
 "http://www.w3.org/Graphics/SVG/1.1/DTD/svg11.dtd">
<!-- Generated by graphviz version 2.47.0 (20210316.0004)
 -->
<!-- Title: dependencies Pages: 1 -->
<svg width="1716pt" height="211pt"
 viewBox="0.00 0.00 1716.00 211.00" xmlns="http://www.w3.org/2000/svg" xmlns:xlink="http://www.w3.org/1999/xlink">
<g id="graph0" class="graph" transform="scale(1 1) rotate(0) translate(4 207)">
<title>dependencies</title>
<polygon fill="white" stroke="transparent" points="-4,4 -4,-207 1712,-207 1712,4 -4,4"/>
<text text-anchor="start" x="833.01" y="-42.4" font-family="Times-12" font-weight="bold" font-size="14.00">Legend</text>
<polygon fill="#ffffb3" stroke="transparent" points="620,-10 620,-30 640,-30 640,-10 620,-10"/>
<text text-anchor="start" x="643.63" y="-15.4" font-family="Times-12" font-size="14.00"> &#160;Declarations</text>
<polygon fill="#8dd3c7" stroke="transparent" points="733,-10 733,-30 753,-30 753,-10 733,-10"/>
<text text-anchor="start" x="756.73" y="-15.4" font-family="Times-12" font-size="14.00"> &#160;Module</text>
<polygon fill="#80b1d3" stroke="transparent" points="819,-10 819,-30 839,-30 839,-10 819,-10"/>
<text text-anchor="start" x="842.78" y="-15.4" font-family="Times-12" font-size="14.00"> &#160;Bootstrap</text>
<polygon fill="#fdb462" stroke="transparent" points="916,-10 916,-30 936,-30 936,-10 916,-10"/>
<text text-anchor="start" x="939.67" y="-15.4" font-family="Times-12" font-size="14.00"> &#160;Providers</text>
<polygon fill="#fb8072" stroke="transparent" points="1012,-10 1012,-30 1032,-30 1032,-10 1012,-10"/>
<text text-anchor="start" x="1035.73" y="-15.4" font-family="Times-12" font-size="14.00"> &#160;Exports</text>
<g id="clust1" class="cluster">
<title>cluster_ViewsConsumerModule</title>
<polygon fill="none" stroke="black" stroke-dasharray="1,5" points="8,-70 8,-195 1700,-195 1700,-70 8,-70"/>
</g>
<g id="clust3" class="cluster">
<title>cluster_ViewsConsumerModule_imports</title>
<polygon fill="none" stroke="black" points="1101,-78 1101,-130 1692,-130 1692,-78 1101,-78"/>
</g>
<g id="clust6" class="cluster">
<title>cluster_ViewsConsumerModule_providers</title>
<polygon fill="none" stroke="black" points="16,-78 16,-130 1093,-130 1093,-78 16,-78"/>
</g>
<!-- AppConfigModule -->
<g id="node1" class="node">
<title>AppConfigModule</title>
<polygon fill="#8dd3c7" stroke="black" points="1684.05,-122 1681.05,-126 1660.05,-126 1657.05,-122 1561.95,-122 1561.95,-86 1684.05,-86 1684.05,-122"/>
<text text-anchor="middle" x="1623" y="-99.8" font-family="Times,serif" font-size="14.00">AppConfigModule</text>
</g>
<!-- ViewsConsumerModule -->
<g id="node5" class="node">
<title>ViewsConsumerModule</title>
<polygon fill="#8dd3c7" stroke="black" points="1078.36,-187 1075.36,-191 1054.36,-191 1051.36,-187 925.64,-187 925.64,-151 1078.36,-151 1078.36,-187"/>
<text text-anchor="middle" x="1002" y="-164.8" font-family="Times,serif" font-size="14.00">ViewsConsumerModule</text>
</g>
<!-- AppConfigModule&#45;&gt;ViewsConsumerModule -->
<g id="edge1" class="edge">
<title>AppConfigModule&#45;&gt;ViewsConsumerModule</title>
<path fill="none" stroke="black" d="M1623,-122.01C1623,-144.49 1623,-180 1623,-180 1623,-180 1088.46,-180 1088.46,-180"/>
<polygon fill="black" stroke="black" points="1088.46,-176.5 1078.46,-180 1088.46,-183.5 1088.46,-176.5"/>
</g>
<!-- LogsModule -->
<g id="node2" class="node">
<title>LogsModule</title>
<polygon fill="#8dd3c7" stroke="black" points="1543.55,-122 1540.55,-126 1519.55,-126 1516.55,-122 1456.45,-122 1456.45,-86 1543.55,-86 1543.55,-122"/>
<text text-anchor="middle" x="1500" y="-99.8" font-family="Times,serif" font-size="14.00">LogsModule</text>
</g>
<!-- LogsModule&#45;&gt;ViewsConsumerModule -->
<g id="edge2" class="edge">
<title>LogsModule&#45;&gt;ViewsConsumerModule</title>
<path fill="none" stroke="black" d="M1500,-122.13C1500,-142.57 1500,-173 1500,-173 1500,-173 1088.45,-173 1088.45,-173"/>
<polygon fill="black" stroke="black" points="1088.45,-169.5 1078.45,-173 1088.45,-176.5 1088.45,-169.5"/>
</g>
<!-- PersistanceModule -->
<g id="node3" class="node">
<title>PersistanceModule</title>
<polygon fill="#8dd3c7" stroke="black" points="1438.02,-122 1435.02,-126 1414.02,-126 1411.02,-122 1315.98,-122 1315.98,-86 1438.02,-86 1438.02,-122"/>
<text text-anchor="middle" x="1377" y="-99.8" font-family="Times,serif" font-size="14.00">PersistanceModule</text>
</g>
<!-- PersistanceModule&#45;&gt;ViewsConsumerModule -->
<g id="edge3" class="edge">
<title>PersistanceModule&#45;&gt;ViewsConsumerModule</title>
<path fill="none" stroke="black" d="M1377,-122.27C1377,-140.56 1377,-166 1377,-166 1377,-166 1088.79,-166 1088.79,-166"/>
<polygon fill="black" stroke="black" points="1088.79,-162.5 1078.79,-166 1088.79,-169.5 1088.79,-162.5"/>
</g>
<!-- ViewAggregatorCacheModule -->
<g id="node4" class="node">
<title>ViewAggregatorCacheModule</title>
<polygon fill="#8dd3c7" stroke="black" points="1297.1,-122 1294.1,-126 1273.1,-126 1270.1,-122 1108.9,-122 1108.9,-86 1297.1,-86 1297.1,-122"/>
<text text-anchor="middle" x="1203" y="-99.8" font-family="Times,serif" font-size="14.00">ViewAggregatorCacheModule</text>
</g>
<!-- ViewAggregatorCacheModule&#45;&gt;ViewsConsumerModule -->
<g id="edge4" class="edge">
<title>ViewAggregatorCacheModule&#45;&gt;ViewsConsumerModule</title>
<path fill="none" stroke="black" d="M1203,-122.01C1203,-138.05 1203,-159 1203,-159 1203,-159 1088.56,-159 1088.56,-159"/>
<polygon fill="black" stroke="black" points="1088.56,-155.5 1078.56,-159 1088.56,-162.5 1088.56,-155.5"/>
</g>
<!-- AppConfigService -->
<g id="node6" class="node">
<title>AppConfigService</title>
<ellipse fill="#fdb462" stroke="black" cx="1002" cy="-104" rx="83.39" ry="18"/>
<text text-anchor="middle" x="1002" y="-99.8" font-family="Times,serif" font-size="14.00">AppConfigService</text>
</g>
<!-- AppConfigService&#45;&gt;ViewsConsumerModule -->
<g id="edge5" class="edge">
<title>AppConfigService&#45;&gt;ViewsConsumerModule</title>
<path fill="none" stroke="black" d="M1027.48,-121.42C1027.48,-121.42 1027.48,-140.62 1027.48,-140.62"/>
<polygon fill="black" stroke="black" points="1023.98,-140.62 1027.48,-150.62 1030.98,-140.62 1023.98,-140.62"/>
</g>
<!-- AppConfigService&#45;&gt;ViewsConsumerModule -->
<g id="edge6" class="edge">
<title>AppConfigService&#45;&gt;ViewsConsumerModule</title>
<path fill="none" stroke="black" d="M976.52,-121.42C976.52,-121.42 976.52,-140.62 976.52,-140.62"/>
<polygon fill="black" stroke="black" points="973.02,-140.62 976.52,-150.62 980.02,-140.62 973.02,-140.62"/>
</g>
<!-- ViewAggregateFactory -->
<g id="node7" class="node">
<title>ViewAggregateFactory</title>
<ellipse fill="#fdb462" stroke="black" cx="799" cy="-104" rx="101.82" ry="18"/>
<text text-anchor="middle" x="799" y="-99.8" font-family="Times,serif" font-size="14.00">ViewAggregateFactory</text>
</g>
<!-- ViewAggregateFactory&#45;&gt;ViewsConsumerModule -->
<g id="edge7" class="edge">
<title>ViewAggregateFactory&#45;&gt;ViewsConsumerModule</title>
<path fill="none" stroke="black" d="M799,-122.01C799,-138.05 799,-159 799,-159 799,-159 915.54,-159 915.54,-159"/>
<polygon fill="black" stroke="black" points="915.54,-162.5 925.54,-159 915.54,-155.5 915.54,-162.5"/>
</g>
<!-- ViewPeristanceAggregateACL -->
<g id="node8" class="node">
<title>ViewPeristanceAggregateACL</title>
<ellipse fill="#fdb462" stroke="black" cx="548" cy="-104" rx="131.31" ry="18"/>
<text text-anchor="middle" x="548" y="-99.8" font-family="Times,serif" font-size="14.00">ViewPeristanceAggregateACL</text>
</g>
<!-- ViewPeristanceAggregateACL&#45;&gt;ViewsConsumerModule -->
<g id="edge8" class="edge">
<title>ViewPeristanceAggregateACL&#45;&gt;ViewsConsumerModule</title>
<path fill="none" stroke="black" d="M548,-122.27C548,-140.56 548,-166 548,-166 548,-166 915.5,-166 915.5,-166"/>
<polygon fill="black" stroke="black" points="915.5,-169.5 925.5,-166 915.5,-162.5 915.5,-169.5"/>
</g>
<!-- ViewRepository -->
<g id="node9" class="node">
<title>ViewRepository</title>
<ellipse fill="#fdb462" stroke="black" cx="325" cy="-104" rx="74.16" ry="18"/>
<text text-anchor="middle" x="325" y="-99.8" font-family="Times,serif" font-size="14.00">ViewRepository</text>
</g>
<!-- ViewRepository&#45;&gt;ViewsConsumerModule -->
<g id="edge9" class="edge">
<title>ViewRepository&#45;&gt;ViewsConsumerModule</title>
<path fill="none" stroke="black" d="M325,-122.13C325,-142.57 325,-173 325,-173 325,-173 915.33,-173 915.33,-173"/>
<polygon fill="black" stroke="black" points="915.33,-176.5 925.33,-173 915.33,-169.5 915.33,-176.5"/>
</g>
<!-- ViewsConsumerService -->
<g id="node10" class="node">
<title>ViewsConsumerService</title>
<ellipse fill="#fdb462" stroke="black" cx="128" cy="-104" rx="104.21" ry="18"/>
<text text-anchor="middle" x="128" y="-99.8" font-family="Times,serif" font-size="14.00">ViewsConsumerService</text>
</g>
<!-- ViewsConsumerService&#45;&gt;ViewsConsumerModule -->
<g id="edge10" class="edge">
<title>ViewsConsumerService&#45;&gt;ViewsConsumerModule</title>
<path fill="none" stroke="black" d="M128,-122.01C128,-144.49 128,-180 128,-180 128,-180 915.59,-180 915.59,-180"/>
<polygon fill="black" stroke="black" points="915.59,-183.5 925.59,-180 915.59,-176.5 915.59,-183.5"/>
</g>
</g>
</svg>
