<?xml version="1.0" encoding="UTF-8" standalone="no"?>
<!DOCTYPE svg PUBLIC "-//W3C//DTD SVG 1.1//EN"
 "http://www.w3.org/Graphics/SVG/1.1/DTD/svg11.dtd">
<!-- Generated by graphviz version 2.47.0 (20210316.0004)
 -->
<!-- Title: dependencies Pages: 1 -->
<svg width="531pt" height="211pt"
 viewBox="0.00 0.00 531.00 211.00" xmlns="http://www.w3.org/2000/svg" xmlns:xlink="http://www.w3.org/1999/xlink">
<g id="graph0" class="graph" transform="scale(1 1) rotate(0) translate(4 207)">
<title>dependencies</title>
<polygon fill="white" stroke="transparent" points="-4,4 -4,-207 527,-207 527,4 -4,4"/>
<text text-anchor="start" x="240.51" y="-42.4" font-family="Times-12" font-weight="bold" font-size="14.00">Legend</text>
<polygon fill="#ffffb3" stroke="transparent" points="27.5,-10 27.5,-30 47.5,-30 47.5,-10 27.5,-10"/>
<text text-anchor="start" x="51.13" y="-15.4" font-family="Times-12" font-size="14.00"> &#160;Declarations</text>
<polygon fill="#8dd3c7" stroke="transparent" points="140.5,-10 140.5,-30 160.5,-30 160.5,-10 140.5,-10"/>
<text text-anchor="start" x="164.23" y="-15.4" font-family="Times-12" font-size="14.00"> &#160;Module</text>
<polygon fill="#80b1d3" stroke="transparent" points="226.5,-10 226.5,-30 246.5,-30 246.5,-10 226.5,-10"/>
<text text-anchor="start" x="250.28" y="-15.4" font-family="Times-12" font-size="14.00"> &#160;Bootstrap</text>
<polygon fill="#fdb462" stroke="transparent" points="323.5,-10 323.5,-30 343.5,-30 343.5,-10 323.5,-10"/>
<text text-anchor="start" x="347.17" y="-15.4" font-family="Times-12" font-size="14.00"> &#160;Providers</text>
<polygon fill="#fb8072" stroke="transparent" points="419.5,-10 419.5,-30 439.5,-30 439.5,-10 419.5,-10"/>
<text text-anchor="start" x="443.23" y="-15.4" font-family="Times-12" font-size="14.00"> &#160;Exports</text>
<g id="clust1" class="cluster">
<title>cluster_UsersModule</title>
<polygon fill="none" stroke="black" stroke-dasharray="1,5" points="8,-70 8,-195 515,-195 515,-70 8,-70"/>
</g>
<g id="clust3" class="cluster">
<title>cluster_UsersModule_imports</title>
<polygon fill="none" stroke="black" points="16,-78 16,-130 507,-130 507,-78 16,-78"/>
</g>
<!-- AppConfigModule -->
<g id="node1" class="node">
<title>AppConfigModule</title>
<polygon fill="#8dd3c7" stroke="black" points="499.05,-122 496.05,-126 475.05,-126 472.05,-122 376.95,-122 376.95,-86 499.05,-86 499.05,-122"/>
<text text-anchor="middle" x="438" y="-99.8" font-family="Times,serif" font-size="14.00">AppConfigModule</text>
</g>
<!-- UsersModule -->
<g id="node5" class="node">
<title>UsersModule</title>
<polygon fill="#8dd3c7" stroke="black" points="295.92,-187 292.92,-191 271.92,-191 268.92,-187 204.08,-187 204.08,-151 295.92,-151 295.92,-187"/>
<text text-anchor="middle" x="250" y="-164.8" font-family="Times,serif" font-size="14.00">UsersModule</text>
</g>
<!-- AppConfigModule&#45;&gt;UsersModule -->
<g id="edge1" class="edge">
<title>AppConfigModule&#45;&gt;UsersModule</title>
<path fill="none" stroke="black" d="M438,-122.11C438,-141.34 438,-169 438,-169 438,-169 305.99,-169 305.99,-169"/>
<polygon fill="black" stroke="black" points="305.99,-165.5 295.99,-169 305.99,-172.5 305.99,-165.5"/>
</g>
<!-- AppJwtModule -->
<g id="node2" class="node">
<title>AppJwtModule</title>
<polygon fill="#8dd3c7" stroke="black" points="358.6,-122 355.6,-126 334.6,-126 331.6,-122 255.4,-122 255.4,-86 358.6,-86 358.6,-122"/>
<text text-anchor="middle" x="307" y="-99.8" font-family="Times,serif" font-size="14.00">AppJwtModule</text>
</g>
<!-- AppJwtModule&#45;&gt;UsersModule -->
<g id="edge2" class="edge">
<title>AppJwtModule&#45;&gt;UsersModule</title>
<path fill="none" stroke="black" d="M275.58,-122.11C275.58,-122.11 275.58,-140.99 275.58,-140.99"/>
<polygon fill="black" stroke="black" points="272.08,-140.99 275.58,-150.99 279.08,-140.99 272.08,-140.99"/>
</g>
<!-- LogsModule -->
<g id="node3" class="node">
<title>LogsModule</title>
<polygon fill="#8dd3c7" stroke="black" points="237.55,-122 234.55,-126 213.55,-126 210.55,-122 150.45,-122 150.45,-86 237.55,-86 237.55,-122"/>
<text text-anchor="middle" x="194" y="-99.8" font-family="Times,serif" font-size="14.00">LogsModule</text>
</g>
<!-- LogsModule&#45;&gt;UsersModule -->
<g id="edge3" class="edge">
<title>LogsModule&#45;&gt;UsersModule</title>
<path fill="none" stroke="black" d="M221.03,-122.11C221.03,-122.11 221.03,-140.99 221.03,-140.99"/>
<polygon fill="black" stroke="black" points="217.53,-140.99 221.03,-150.99 224.53,-140.99 217.53,-140.99"/>
</g>
<!-- MeasureModule -->
<g id="node4" class="node">
<title>MeasureModule</title>
<polygon fill="#8dd3c7" stroke="black" points="131.74,-122 128.74,-126 107.74,-126 104.74,-122 24.26,-122 24.26,-86 131.74,-86 131.74,-122"/>
<text text-anchor="middle" x="78" y="-99.8" font-family="Times,serif" font-size="14.00">MeasureModule</text>
</g>
<!-- MeasureModule&#45;&gt;UsersModule -->
<g id="edge4" class="edge">
<title>MeasureModule&#45;&gt;UsersModule</title>
<path fill="none" stroke="black" d="M78,-122.11C78,-141.34 78,-169 78,-169 78,-169 193.91,-169 193.91,-169"/>
<polygon fill="black" stroke="black" points="193.91,-172.5 203.91,-169 193.91,-165.5 193.91,-172.5"/>
</g>
</g>
</svg>
