<?xml version="1.0" encoding="UTF-8" standalone="no"?>
<!DOCTYPE svg PUBLIC "-//W3C//DTD SVG 1.1//EN"
 "http://www.w3.org/Graphics/SVG/1.1/DTD/svg11.dtd">
<!-- Generated by graphviz version 2.47.0 (20210316.0004)
 -->
<!-- Title: dependencies Pages: 1 -->
<svg width="1128pt" height="284pt"
 viewBox="0.00 0.00 1128.00 284.00" xmlns="http://www.w3.org/2000/svg" xmlns:xlink="http://www.w3.org/1999/xlink">
<g id="graph0" class="graph" transform="scale(1 1) rotate(0) translate(4 280)">
<title>dependencies</title>
<polygon fill="white" stroke="transparent" points="-4,4 -4,-280 1124,-280 1124,4 -4,4"/>
<text text-anchor="start" x="539.01" y="-42.4" font-family="Times-12" font-weight="bold" font-size="14.00">Legend</text>
<polygon fill="#ffffb3" stroke="transparent" points="326,-10 326,-30 346,-30 346,-10 326,-10"/>
<text text-anchor="start" x="349.63" y="-15.4" font-family="Times-12" font-size="14.00"> &#160;Declarations</text>
<polygon fill="#8dd3c7" stroke="transparent" points="439,-10 439,-30 459,-30 459,-10 439,-10"/>
<text text-anchor="start" x="462.73" y="-15.4" font-family="Times-12" font-size="14.00"> &#160;Module</text>
<polygon fill="#80b1d3" stroke="transparent" points="525,-10 525,-30 545,-30 545,-10 525,-10"/>
<text text-anchor="start" x="548.78" y="-15.4" font-family="Times-12" font-size="14.00"> &#160;Bootstrap</text>
<polygon fill="#fdb462" stroke="transparent" points="622,-10 622,-30 642,-30 642,-10 622,-10"/>
<text text-anchor="start" x="645.67" y="-15.4" font-family="Times-12" font-size="14.00"> &#160;Providers</text>
<polygon fill="#fb8072" stroke="transparent" points="718,-10 718,-30 738,-30 738,-10 718,-10"/>
<text text-anchor="start" x="741.73" y="-15.4" font-family="Times-12" font-size="14.00"> &#160;Exports</text>
<g id="clust1" class="cluster">
<title>cluster_ViewAggregatorCacheModule</title>
<polygon fill="none" stroke="black" stroke-dasharray="1,5" points="8,-70 8,-268 1112,-268 1112,-70 8,-70"/>
</g>
<g id="clust3" class="cluster">
<title>cluster_ViewAggregatorCacheModule_imports</title>
<polygon fill="none" stroke="black" points="966,-78 966,-130 1104,-130 1104,-78 966,-78"/>
</g>
<g id="clust4" class="cluster">
<title>cluster_ViewAggregatorCacheModule_exports</title>
<polygon fill="none" stroke="black" points="496,-208 496,-260 702,-260 702,-208 496,-208"/>
</g>
<g id="clust6" class="cluster">
<title>cluster_ViewAggregatorCacheModule_providers</title>
<polygon fill="none" stroke="black" points="16,-78 16,-130 958,-130 958,-78 16,-78"/>
</g>
<!-- AppConfigModule -->
<g id="node1" class="node">
<title>AppConfigModule</title>
<polygon fill="#8dd3c7" stroke="black" points="1096.05,-122 1093.05,-126 1072.05,-126 1069.05,-122 973.95,-122 973.95,-86 1096.05,-86 1096.05,-122"/>
<text text-anchor="middle" x="1035" y="-99.8" font-family="Times,serif" font-size="14.00">AppConfigModule</text>
</g>
<!-- ViewAggregatorCacheModule -->
<g id="node2" class="node">
<title>ViewAggregatorCacheModule</title>
<polygon fill="#8dd3c7" stroke="black" points="693.1,-187 690.1,-191 669.1,-191 666.1,-187 504.9,-187 504.9,-151 693.1,-151 693.1,-187"/>
<text text-anchor="middle" x="599" y="-164.8" font-family="Times,serif" font-size="14.00">ViewAggregatorCacheModule</text>
</g>
<!-- AppConfigModule&#45;&gt;ViewAggregatorCacheModule -->
<g id="edge1" class="edge">
<title>AppConfigModule&#45;&gt;ViewAggregatorCacheModule</title>
<path fill="none" stroke="black" d="M1035,-122.28C1035,-143.32 1035,-175 1035,-175 1035,-175 703.34,-175 703.34,-175"/>
<polygon fill="black" stroke="black" points="703.34,-171.5 693.34,-175 703.34,-178.5 703.34,-171.5"/>
</g>
<!-- ViewAggregatorCacheService  -->
<g id="node3" class="node">
<title>ViewAggregatorCacheService </title>
<polygon fill="#fb8072" stroke="black" points="694.02,-252 503.98,-252 503.98,-216 694.02,-216 694.02,-252"/>
<text text-anchor="middle" x="599" y="-229.8" font-family="Times,serif" font-size="14.00">ViewAggregatorCacheService </text>
</g>
<!-- ViewAggregatorCacheModule&#45;&gt;ViewAggregatorCacheService  -->
<g id="edge2" class="edge">
<title>ViewAggregatorCacheModule&#45;&gt;ViewAggregatorCacheService </title>
<path fill="none" stroke="black" stroke-dasharray="5,2" d="M599,-187.11C599,-187.11 599,-205.99 599,-205.99"/>
<polygon fill="black" stroke="black" points="595.5,-205.99 599,-215.99 602.5,-205.99 595.5,-205.99"/>
</g>
<!-- ViewAggregateFactory -->
<g id="node4" class="node">
<title>ViewAggregateFactory</title>
<ellipse fill="#fdb462" stroke="black" cx="848" cy="-104" rx="101.82" ry="18"/>
<text text-anchor="middle" x="848" y="-99.8" font-family="Times,serif" font-size="14.00">ViewAggregateFactory</text>
</g>
<!-- ViewAggregateFactory&#45;&gt;ViewAggregatorCacheModule -->
<g id="edge3" class="edge">
<title>ViewAggregateFactory&#45;&gt;ViewAggregatorCacheModule</title>
<path fill="none" stroke="black" d="M848,-122.02C848,-139.37 848,-163 848,-163 848,-163 703.14,-163 703.14,-163"/>
<polygon fill="black" stroke="black" points="703.14,-159.5 693.14,-163 703.14,-166.5 703.14,-159.5"/>
</g>
<!-- ViewAggregatorCacheService -->
<g id="node5" class="node">
<title>ViewAggregatorCacheService</title>
<ellipse fill="#fdb462" stroke="black" cx="599" cy="-104" rx="129.01" ry="18"/>
<text text-anchor="middle" x="599" y="-99.8" font-family="Times,serif" font-size="14.00">ViewAggregatorCacheService</text>
</g>
<!-- ViewAggregatorCacheService&#45;&gt;ViewAggregatorCacheModule -->
<g id="edge4" class="edge">
<title>ViewAggregatorCacheService&#45;&gt;ViewAggregatorCacheModule</title>
<path fill="none" stroke="black" d="M599,-122.11C599,-122.11 599,-140.99 599,-140.99"/>
<polygon fill="black" stroke="black" points="595.5,-140.99 599,-150.99 602.5,-140.99 595.5,-140.99"/>
</g>
<!-- ViewPeristanceAggregateACL -->
<g id="node6" class="node">
<title>ViewPeristanceAggregateACL</title>
<ellipse fill="#fdb462" stroke="black" cx="321" cy="-104" rx="131.31" ry="18"/>
<text text-anchor="middle" x="321" y="-99.8" font-family="Times,serif" font-size="14.00">ViewPeristanceAggregateACL</text>
</g>
<!-- ViewPeristanceAggregateACL&#45;&gt;ViewAggregatorCacheModule -->
<g id="edge5" class="edge">
<title>ViewPeristanceAggregateACL&#45;&gt;ViewAggregatorCacheModule</title>
<path fill="none" stroke="black" d="M321,-122.02C321,-139.37 321,-163 321,-163 321,-163 494.88,-163 494.88,-163"/>
<polygon fill="black" stroke="black" points="494.88,-166.5 504.88,-163 494.88,-159.5 494.88,-166.5"/>
</g>
<!-- ViewRepository -->
<g id="node7" class="node">
<title>ViewRepository</title>
<ellipse fill="#fdb462" stroke="black" cx="98" cy="-104" rx="74.16" ry="18"/>
<text text-anchor="middle" x="98" y="-99.8" font-family="Times,serif" font-size="14.00">ViewRepository</text>
</g>
<!-- ViewRepository&#45;&gt;ViewAggregatorCacheModule -->
<g id="edge6" class="edge">
<title>ViewRepository&#45;&gt;ViewAggregatorCacheModule</title>
<path fill="none" stroke="black" d="M98,-122.28C98,-143.32 98,-175 98,-175 98,-175 494.77,-175 494.77,-175"/>
<polygon fill="black" stroke="black" points="494.77,-178.5 504.77,-175 494.77,-171.5 494.77,-178.5"/>
</g>
</g>
</svg>
