<?xml version="1.0" encoding="UTF-8" standalone="no"?>
<!DOCTYPE svg PUBLIC "-//W3C//DTD SVG 1.1//EN"
 "http://www.w3.org/Graphics/SVG/1.1/DTD/svg11.dtd">
<!-- Generated by graphviz version 2.47.0 (20210316.0004)
 -->
<!-- Title: dependencies Pages: 1 -->
<svg width="588pt" height="284pt"
 viewBox="0.00 0.00 588.00 284.00" xmlns="http://www.w3.org/2000/svg" xmlns:xlink="http://www.w3.org/1999/xlink">
<g id="graph0" class="graph" transform="scale(1 1) rotate(0) translate(4 280)">
<title>dependencies</title>
<polygon fill="white" stroke="transparent" points="-4,4 -4,-280 584,-280 584,4 -4,4"/>
<text text-anchor="start" x="269.01" y="-42.4" font-family="Times-12" font-weight="bold" font-size="14.00">Legend</text>
<polygon fill="#ffffb3" stroke="transparent" points="56,-10 56,-30 76,-30 76,-10 56,-10"/>
<text text-anchor="start" x="79.63" y="-15.4" font-family="Times-12" font-size="14.00"> &#160;Declarations</text>
<polygon fill="#8dd3c7" stroke="transparent" points="169,-10 169,-30 189,-30 189,-10 169,-10"/>
<text text-anchor="start" x="192.73" y="-15.4" font-family="Times-12" font-size="14.00"> &#160;Module</text>
<polygon fill="#80b1d3" stroke="transparent" points="255,-10 255,-30 275,-30 275,-10 255,-10"/>
<text text-anchor="start" x="278.78" y="-15.4" font-family="Times-12" font-size="14.00"> &#160;Bootstrap</text>
<polygon fill="#fdb462" stroke="transparent" points="352,-10 352,-30 372,-30 372,-10 352,-10"/>
<text text-anchor="start" x="375.67" y="-15.4" font-family="Times-12" font-size="14.00"> &#160;Providers</text>
<polygon fill="#fb8072" stroke="transparent" points="448,-10 448,-30 468,-30 468,-10 448,-10"/>
<text text-anchor="start" x="471.73" y="-15.4" font-family="Times-12" font-size="14.00"> &#160;Exports</text>
<g id="clust1" class="cluster">
<title>cluster_MessageBrokerModule</title>
<polygon fill="none" stroke="black" stroke-dasharray="1,5" points="8,-70 8,-268 572,-268 572,-70 8,-70"/>
</g>
<g id="clust4" class="cluster">
<title>cluster_MessageBrokerModule_exports</title>
<polygon fill="none" stroke="black" points="188,-208 188,-260 354,-260 354,-208 188,-208"/>
</g>
<g id="clust6" class="cluster">
<title>cluster_MessageBrokerModule_providers</title>
<polygon fill="none" stroke="black" points="162,-78 162,-130 564,-130 564,-78 162,-78"/>
</g>
<g id="clust3" class="cluster">
<title>cluster_MessageBrokerModule_imports</title>
<polygon fill="none" stroke="black" points="16,-78 16,-130 154,-130 154,-78 16,-78"/>
</g>
<!-- AppConfigModule -->
<g id="node1" class="node">
<title>AppConfigModule</title>
<polygon fill="#8dd3c7" stroke="black" points="146.05,-122 143.05,-126 122.05,-126 119.05,-122 23.95,-122 23.95,-86 146.05,-86 146.05,-122"/>
<text text-anchor="middle" x="85" y="-99.8" font-family="Times,serif" font-size="14.00">AppConfigModule</text>
</g>
<!-- MessageBrokerModule -->
<g id="node2" class="node">
<title>MessageBrokerModule</title>
<polygon fill="#8dd3c7" stroke="black" points="344.9,-187 341.9,-191 320.9,-191 317.9,-187 197.1,-187 197.1,-151 344.9,-151 344.9,-187"/>
<text text-anchor="middle" x="271" y="-164.8" font-family="Times,serif" font-size="14.00">MessageBrokerModule</text>
</g>
<!-- AppConfigModule&#45;&gt;MessageBrokerModule -->
<g id="edge1" class="edge">
<title>AppConfigModule&#45;&gt;MessageBrokerModule</title>
<path fill="none" stroke="black" d="M85,-122.11C85,-141.34 85,-169 85,-169 85,-169 187.22,-169 187.22,-169"/>
<polygon fill="black" stroke="black" points="187.22,-172.5 197.22,-169 187.22,-165.5 187.22,-172.5"/>
</g>
<!-- MessageBrokerService  -->
<g id="node3" class="node">
<title>MessageBrokerService </title>
<polygon fill="#fb8072" stroke="black" points="345.83,-252 196.17,-252 196.17,-216 345.83,-216 345.83,-252"/>
<text text-anchor="middle" x="271" y="-229.8" font-family="Times,serif" font-size="14.00">MessageBrokerService </text>
</g>
<!-- MessageBrokerModule&#45;&gt;MessageBrokerService  -->
<g id="edge2" class="edge">
<title>MessageBrokerModule&#45;&gt;MessageBrokerService </title>
<path fill="none" stroke="black" stroke-dasharray="5,2" d="M271,-187.11C271,-187.11 271,-205.99 271,-205.99"/>
<polygon fill="black" stroke="black" points="267.5,-205.99 271,-215.99 274.5,-205.99 267.5,-205.99"/>
</g>
<!-- AppConfigService -->
<g id="node4" class="node">
<title>AppConfigService</title>
<ellipse fill="#fdb462" stroke="black" cx="473" cy="-104" rx="83.39" ry="18"/>
<text text-anchor="middle" x="473" y="-99.8" font-family="Times,serif" font-size="14.00">AppConfigService</text>
</g>
<!-- AppConfigService&#45;&gt;MessageBrokerModule -->
<g id="edge3" class="edge">
<title>AppConfigService&#45;&gt;MessageBrokerModule</title>
<path fill="none" stroke="black" d="M473,-122.11C473,-141.34 473,-169 473,-169 473,-169 354.78,-169 354.78,-169"/>
<polygon fill="black" stroke="black" points="354.78,-165.5 344.78,-169 354.78,-172.5 354.78,-165.5"/>
</g>
<!-- MessageBrokerService -->
<g id="node5" class="node">
<title>MessageBrokerService</title>
<ellipse fill="#fdb462" stroke="black" cx="271" cy="-104" rx="100.68" ry="18"/>
<text text-anchor="middle" x="271" y="-99.8" font-family="Times,serif" font-size="14.00">MessageBrokerService</text>
</g>
<!-- MessageBrokerService&#45;&gt;MessageBrokerModule -->
<g id="edge4" class="edge">
<title>MessageBrokerService&#45;&gt;MessageBrokerModule</title>
<path fill="none" stroke="black" d="M271,-122.11C271,-122.11 271,-140.99 271,-140.99"/>
<polygon fill="black" stroke="black" points="267.5,-140.99 271,-150.99 274.5,-140.99 267.5,-140.99"/>
</g>
</g>
</svg>
