<?xml version="1.0" encoding="UTF-8" standalone="no"?>
<!DOCTYPE svg PUBLIC "-//W3C//DTD SVG 1.1//EN"
 "http://www.w3.org/Graphics/SVG/1.1/DTD/svg11.dtd">
<!-- Generated by graphviz version 2.47.0 (20210316.0004)
 -->
<!-- Title: dependencies Pages: 1 -->
<svg width="1505pt" height="211pt"
 viewBox="0.00 0.00 1505.00 211.00" xmlns="http://www.w3.org/2000/svg" xmlns:xlink="http://www.w3.org/1999/xlink">
<g id="graph0" class="graph" transform="scale(1 1) rotate(0) translate(4 207)">
<title>dependencies</title>
<polygon fill="white" stroke="transparent" points="-4,4 -4,-207 1501,-207 1501,4 -4,4"/>
<text text-anchor="start" x="727.51" y="-42.4" font-family="Times-12" font-weight="bold" font-size="14.00">Legend</text>
<polygon fill="#ffffb3" stroke="transparent" points="514.5,-10 514.5,-30 534.5,-30 534.5,-10 514.5,-10"/>
<text text-anchor="start" x="538.13" y="-15.4" font-family="Times-12" font-size="14.00"> &#160;Declarations</text>
<polygon fill="#8dd3c7" stroke="transparent" points="627.5,-10 627.5,-30 647.5,-30 647.5,-10 627.5,-10"/>
<text text-anchor="start" x="651.23" y="-15.4" font-family="Times-12" font-size="14.00"> &#160;Module</text>
<polygon fill="#80b1d3" stroke="transparent" points="713.5,-10 713.5,-30 733.5,-30 733.5,-10 713.5,-10"/>
<text text-anchor="start" x="737.28" y="-15.4" font-family="Times-12" font-size="14.00"> &#160;Bootstrap</text>
<polygon fill="#fdb462" stroke="transparent" points="810.5,-10 810.5,-30 830.5,-30 830.5,-10 810.5,-10"/>
<text text-anchor="start" x="834.17" y="-15.4" font-family="Times-12" font-size="14.00"> &#160;Providers</text>
<polygon fill="#fb8072" stroke="transparent" points="906.5,-10 906.5,-30 926.5,-30 926.5,-10 906.5,-10"/>
<text text-anchor="start" x="930.23" y="-15.4" font-family="Times-12" font-size="14.00"> &#160;Exports</text>
<g id="clust1" class="cluster">
<title>cluster_AppModule</title>
<polygon fill="none" stroke="black" stroke-dasharray="1,5" points="8,-70 8,-195 1489,-195 1489,-70 8,-70"/>
</g>
<g id="clust3" class="cluster">
<title>cluster_AppModule_imports</title>
<polygon fill="none" stroke="black" points="16,-78 16,-130 1481,-130 1481,-78 16,-78"/>
</g>
<!-- AppConfigModule -->
<g id="node1" class="node">
<title>AppConfigModule</title>
<polygon fill="#8dd3c7" stroke="black" points="1473.05,-122 1470.05,-126 1449.05,-126 1446.05,-122 1350.95,-122 1350.95,-86 1473.05,-86 1473.05,-122"/>
<text text-anchor="middle" x="1412" y="-99.8" font-family="Times,serif" font-size="14.00">AppConfigModule</text>
</g>
<!-- AppModule -->
<g id="node13" class="node">
<title>AppModule</title>
<polygon fill="#8dd3c7" stroke="black" points="678.66,-187 675.66,-191 654.66,-191 651.66,-187 595.34,-187 595.34,-151 678.66,-151 678.66,-187"/>
<text text-anchor="middle" x="637" y="-164.8" font-family="Times,serif" font-size="14.00">AppModule</text>
</g>
<!-- AppConfigModule&#45;&gt;AppModule -->
<g id="edge1" class="edge">
<title>AppConfigModule&#45;&gt;AppModule</title>
<path fill="none" stroke="black" d="M1412,-122.09C1412,-145.13 1412,-182 1412,-182 1412,-182 688.67,-182 688.67,-182"/>
<polygon fill="black" stroke="black" points="688.67,-178.5 678.67,-182 688.67,-185.5 688.67,-178.5"/>
</g>
<!-- AppHealthModule -->
<g id="node2" class="node">
<title>AppHealthModule</title>
<polygon fill="#8dd3c7" stroke="black" points="1332.47,-122 1329.47,-126 1308.47,-126 1305.47,-122 1211.53,-122 1211.53,-86 1332.47,-86 1332.47,-122"/>
<text text-anchor="middle" x="1272" y="-99.8" font-family="Times,serif" font-size="14.00">AppHealthModule</text>
</g>
<!-- AppHealthModule&#45;&gt;AppModule -->
<g id="edge2" class="edge">
<title>AppHealthModule&#45;&gt;AppModule</title>
<path fill="none" stroke="black" d="M1272,-122.04C1272,-143.66 1272,-177 1272,-177 1272,-177 688.66,-177 688.66,-177"/>
<polygon fill="black" stroke="black" points="688.66,-173.5 678.66,-177 688.66,-180.5 688.66,-173.5"/>
</g>
<!-- AuthModule -->
<g id="node3" class="node">
<title>AuthModule</title>
<polygon fill="#8dd3c7" stroke="black" points="1193.55,-122 1190.55,-126 1169.55,-126 1166.55,-122 1106.45,-122 1106.45,-86 1193.55,-86 1193.55,-122"/>
<text text-anchor="middle" x="1150" y="-99.8" font-family="Times,serif" font-size="14.00">AuthModule</text>
</g>
<!-- AuthModule&#45;&gt;AppModule -->
<g id="edge3" class="edge">
<title>AuthModule&#45;&gt;AppModule</title>
<path fill="none" stroke="black" d="M1150,-122.22C1150,-142.37 1150,-172 1150,-172 1150,-172 688.98,-172 688.98,-172"/>
<polygon fill="black" stroke="black" points="688.98,-168.5 678.98,-172 688.98,-175.5 688.98,-168.5"/>
</g>
<!-- CloudModule -->
<g id="node4" class="node">
<title>CloudModule</title>
<polygon fill="#8dd3c7" stroke="black" points="1087.78,-122 1084.78,-126 1063.78,-126 1060.78,-122 994.22,-122 994.22,-86 1087.78,-86 1087.78,-122"/>
<text text-anchor="middle" x="1041" y="-99.8" font-family="Times,serif" font-size="14.00">CloudModule</text>
</g>
<!-- CloudModule&#45;&gt;AppModule -->
<g id="edge4" class="edge">
<title>CloudModule&#45;&gt;AppModule</title>
<path fill="none" stroke="black" d="M1041,-122.22C1041,-140.83 1041,-167 1041,-167 1041,-167 688.71,-167 688.71,-167"/>
<polygon fill="black" stroke="black" points="688.71,-163.5 678.71,-167 688.71,-170.5 688.71,-163.5"/>
</g>
<!-- CommentsModule -->
<g id="node5" class="node">
<title>CommentsModule</title>
<polygon fill="#8dd3c7" stroke="black" points="976.22,-122 973.22,-126 952.22,-126 949.22,-122 855.78,-122 855.78,-86 976.22,-86 976.22,-122"/>
<text text-anchor="middle" x="916" y="-99.8" font-family="Times,serif" font-size="14.00">CommentsModule</text>
</g>
<!-- CommentsModule&#45;&gt;AppModule -->
<g id="edge5" class="edge">
<title>CommentsModule&#45;&gt;AppModule</title>
<path fill="none" stroke="black" d="M916,-122.03C916,-139.06 916,-162 916,-162 916,-162 688.77,-162 688.77,-162"/>
<polygon fill="black" stroke="black" points="688.77,-158.5 678.77,-162 688.77,-165.5 688.77,-158.5"/>
</g>
<!-- GatewayAuthModule -->
<g id="node6" class="node">
<title>GatewayAuthModule</title>
<polygon fill="#8dd3c7" stroke="black" points="837.79,-122 834.79,-126 813.79,-126 810.79,-122 700.21,-122 700.21,-86 837.79,-86 837.79,-122"/>
<text text-anchor="middle" x="769" y="-99.8" font-family="Times,serif" font-size="14.00">GatewayAuthModule</text>
</g>
<!-- GatewayAuthModule&#45;&gt;AppModule -->
<g id="edge6" class="edge">
<title>GatewayAuthModule&#45;&gt;AppModule</title>
<path fill="none" stroke="black" d="M769,-122.24C769,-137.57 769,-157 769,-157 769,-157 688.77,-157 688.77,-157"/>
<polygon fill="black" stroke="black" points="688.77,-153.5 678.77,-157 688.77,-160.5 688.77,-153.5"/>
</g>
<!-- LikesModule -->
<g id="node7" class="node">
<title>LikesModule</title>
<polygon fill="#8dd3c7" stroke="black" points="682.15,-122 679.15,-126 658.15,-126 655.15,-122 591.85,-122 591.85,-86 682.15,-86 682.15,-122"/>
<text text-anchor="middle" x="637" y="-99.8" font-family="Times,serif" font-size="14.00">LikesModule</text>
</g>
<!-- LikesModule&#45;&gt;AppModule -->
<g id="edge7" class="edge">
<title>LikesModule&#45;&gt;AppModule</title>
<path fill="none" stroke="black" d="M637,-122.11C637,-122.11 637,-140.99 637,-140.99"/>
<polygon fill="black" stroke="black" points="633.5,-140.99 637,-150.99 640.5,-140.99 633.5,-140.99"/>
</g>
<!-- LogsModule -->
<g id="node8" class="node">
<title>LogsModule</title>
<polygon fill="#8dd3c7" stroke="black" points="573.55,-122 570.55,-126 549.55,-126 546.55,-122 486.45,-122 486.45,-86 573.55,-86 573.55,-122"/>
<text text-anchor="middle" x="530" y="-99.8" font-family="Times,serif" font-size="14.00">LogsModule</text>
</g>
<!-- LogsModule&#45;&gt;AppModule -->
<g id="edge8" class="edge">
<title>LogsModule&#45;&gt;AppModule</title>
<path fill="none" stroke="black" d="M530,-122.24C530,-137.57 530,-157 530,-157 530,-157 585.32,-157 585.32,-157"/>
<polygon fill="black" stroke="black" points="585.32,-160.5 595.32,-157 585.32,-153.5 585.32,-160.5"/>
</g>
<!-- MeasureModule -->
<g id="node9" class="node">
<title>MeasureModule</title>
<polygon fill="#8dd3c7" stroke="black" points="467.74,-122 464.74,-126 443.74,-126 440.74,-122 360.26,-122 360.26,-86 467.74,-86 467.74,-122"/>
<text text-anchor="middle" x="414" y="-99.8" font-family="Times,serif" font-size="14.00">MeasureModule</text>
</g>
<!-- MeasureModule&#45;&gt;AppModule -->
<g id="edge9" class="edge">
<title>MeasureModule&#45;&gt;AppModule</title>
<path fill="none" stroke="black" d="M396.04,-122.22C396.04,-140.83 396.04,-167 396.04,-167 396.04,-167 585.3,-167 585.3,-167"/>
<polygon fill="black" stroke="black" points="585.3,-170.5 595.3,-167 585.3,-163.5 585.3,-170.5"/>
</g>
<!-- MeasureModule&#45;&gt;AppModule -->
<g id="edge10" class="edge">
<title>MeasureModule&#45;&gt;AppModule</title>
<path fill="none" stroke="black" d="M431.96,-122.03C431.96,-139.06 431.96,-162 431.96,-162 431.96,-162 585.01,-162 585.01,-162"/>
<polygon fill="black" stroke="black" points="585.01,-165.5 595.01,-162 585.01,-158.5 585.01,-165.5"/>
</g>
<!-- UsersModule -->
<g id="node10" class="node">
<title>UsersModule</title>
<polygon fill="#8dd3c7" stroke="black" points="341.92,-122 338.92,-126 317.92,-126 314.92,-122 250.08,-122 250.08,-86 341.92,-86 341.92,-122"/>
<text text-anchor="middle" x="296" y="-99.8" font-family="Times,serif" font-size="14.00">UsersModule</text>
</g>
<!-- UsersModule&#45;&gt;AppModule -->
<g id="edge11" class="edge">
<title>UsersModule&#45;&gt;AppModule</title>
<path fill="none" stroke="black" d="M296,-122.22C296,-142.37 296,-172 296,-172 296,-172 585.19,-172 585.19,-172"/>
<polygon fill="black" stroke="black" points="585.19,-175.5 595.19,-172 585.19,-168.5 585.19,-175.5"/>
</g>
<!-- VideoModule -->
<g id="node11" class="node">
<title>VideoModule</title>
<polygon fill="#8dd3c7" stroke="black" points="231.76,-122 228.76,-126 207.76,-126 204.76,-122 138.24,-122 138.24,-86 231.76,-86 231.76,-122"/>
<text text-anchor="middle" x="185" y="-99.8" font-family="Times,serif" font-size="14.00">VideoModule</text>
</g>
<!-- VideoModule&#45;&gt;AppModule -->
<g id="edge12" class="edge">
<title>VideoModule&#45;&gt;AppModule</title>
<path fill="none" stroke="black" d="M185,-122.04C185,-143.66 185,-177 185,-177 185,-177 585.29,-177 585.29,-177"/>
<polygon fill="black" stroke="black" points="585.29,-180.5 595.29,-177 585.29,-173.5 585.29,-180.5"/>
</g>
<!-- WatchModule -->
<g id="node12" class="node">
<title>WatchModule</title>
<polygon fill="#8dd3c7" stroke="black" points="120.08,-122 117.08,-126 96.08,-126 93.08,-122 23.92,-122 23.92,-86 120.08,-86 120.08,-122"/>
<text text-anchor="middle" x="72" y="-99.8" font-family="Times,serif" font-size="14.00">WatchModule</text>
</g>
<!-- WatchModule&#45;&gt;AppModule -->
<g id="edge13" class="edge">
<title>WatchModule&#45;&gt;AppModule</title>
<path fill="none" stroke="black" d="M72,-122.09C72,-145.13 72,-182 72,-182 72,-182 584.99,-182 584.99,-182"/>
<polygon fill="black" stroke="black" points="584.99,-185.5 594.99,-182 584.99,-178.5 584.99,-185.5"/>
</g>
</g>
</svg>
