<?xml version="1.0" encoding="UTF-8" standalone="no"?>
<!DOCTYPE svg PUBLIC "-//W3C//DTD SVG 1.1//EN"
 "http://www.w3.org/Graphics/SVG/1.1/DTD/svg11.dtd">
<!-- Generated by graphviz version 2.47.0 (20210316.0004)
 -->
<!-- Title: dependencies Pages: 1 -->
<svg width="1192pt" height="284pt"
 viewBox="0.00 0.00 1192.00 284.00" xmlns="http://www.w3.org/2000/svg" xmlns:xlink="http://www.w3.org/1999/xlink">
<g id="graph0" class="graph" transform="scale(1 1) rotate(0) translate(4 280)">
<title>dependencies</title>
<polygon fill="white" stroke="transparent" points="-4,4 -4,-280 1188,-280 1188,4 -4,4"/>
<text text-anchor="start" x="571.01" y="-42.4" font-family="Times-12" font-weight="bold" font-size="14.00">Legend</text>
<polygon fill="#ffffb3" stroke="transparent" points="358,-10 358,-30 378,-30 378,-10 358,-10"/>
<text text-anchor="start" x="381.63" y="-15.4" font-family="Times-12" font-size="14.00"> &#160;Declarations</text>
<polygon fill="#8dd3c7" stroke="transparent" points="471,-10 471,-30 491,-30 491,-10 471,-10"/>
<text text-anchor="start" x="494.73" y="-15.4" font-family="Times-12" font-size="14.00"> &#160;Module</text>
<polygon fill="#80b1d3" stroke="transparent" points="557,-10 557,-30 577,-30 577,-10 557,-10"/>
<text text-anchor="start" x="580.78" y="-15.4" font-family="Times-12" font-size="14.00"> &#160;Bootstrap</text>
<polygon fill="#fdb462" stroke="transparent" points="654,-10 654,-30 674,-30 674,-10 654,-10"/>
<text text-anchor="start" x="677.67" y="-15.4" font-family="Times-12" font-size="14.00"> &#160;Providers</text>
<polygon fill="#fb8072" stroke="transparent" points="750,-10 750,-30 770,-30 770,-10 750,-10"/>
<text text-anchor="start" x="773.73" y="-15.4" font-family="Times-12" font-size="14.00"> &#160;Exports</text>
<g id="clust1" class="cluster">
<title>cluster_CommentAggregatorCacheModule</title>
<polygon fill="none" stroke="black" stroke-dasharray="1,5" points="8,-70 8,-268 1176,-268 1176,-70 8,-70"/>
</g>
<g id="clust6" class="cluster">
<title>cluster_CommentAggregatorCacheModule_providers</title>
<polygon fill="none" stroke="black" points="162,-78 162,-130 1168,-130 1168,-78 162,-78"/>
</g>
<g id="clust4" class="cluster">
<title>cluster_CommentAggregatorCacheModule_exports</title>
<polygon fill="none" stroke="black" points="358,-208 358,-260 590,-260 590,-208 358,-208"/>
</g>
<g id="clust3" class="cluster">
<title>cluster_CommentAggregatorCacheModule_imports</title>
<polygon fill="none" stroke="black" points="16,-78 16,-130 154,-130 154,-78 16,-78"/>
</g>
<!-- AppConfigModule -->
<g id="node1" class="node">
<title>AppConfigModule</title>
<polygon fill="#8dd3c7" stroke="black" points="146.05,-122 143.05,-126 122.05,-126 119.05,-122 23.95,-122 23.95,-86 146.05,-86 146.05,-122"/>
<text text-anchor="middle" x="85" y="-99.8" font-family="Times,serif" font-size="14.00">AppConfigModule</text>
</g>
<!-- CommentAggregatorCacheModule -->
<g id="node2" class="node">
<title>CommentAggregatorCacheModule</title>
<polygon fill="#8dd3c7" stroke="black" points="580.5,-187 577.5,-191 556.5,-191 553.5,-187 367.5,-187 367.5,-151 580.5,-151 580.5,-187"/>
<text text-anchor="middle" x="474" y="-164.8" font-family="Times,serif" font-size="14.00">CommentAggregatorCacheModule</text>
</g>
<!-- AppConfigModule&#45;&gt;CommentAggregatorCacheModule -->
<g id="edge1" class="edge">
<title>AppConfigModule&#45;&gt;CommentAggregatorCacheModule</title>
<path fill="none" stroke="black" d="M85,-122.28C85,-143.32 85,-175 85,-175 85,-175 357.45,-175 357.45,-175"/>
<polygon fill="black" stroke="black" points="357.45,-178.5 367.45,-175 357.45,-171.5 357.45,-178.5"/>
</g>
<!-- CommentAggregatorCacheService  -->
<g id="node3" class="node">
<title>CommentAggregatorCacheService </title>
<polygon fill="#fb8072" stroke="black" points="581.93,-252 366.07,-252 366.07,-216 581.93,-216 581.93,-252"/>
<text text-anchor="middle" x="474" y="-229.8" font-family="Times,serif" font-size="14.00">CommentAggregatorCacheService </text>
</g>
<!-- CommentAggregatorCacheModule&#45;&gt;CommentAggregatorCacheService  -->
<g id="edge2" class="edge">
<title>CommentAggregatorCacheModule&#45;&gt;CommentAggregatorCacheService </title>
<path fill="none" stroke="black" stroke-dasharray="5,2" d="M474,-187.11C474,-187.11 474,-205.99 474,-205.99"/>
<polygon fill="black" stroke="black" points="470.5,-205.99 474,-215.99 477.5,-205.99 470.5,-205.99"/>
</g>
<!-- CommentAggregateFactory -->
<g id="node4" class="node">
<title>CommentAggregateFactory</title>
<ellipse fill="#fdb462" stroke="black" cx="1041" cy="-104" rx="118.68" ry="18"/>
<text text-anchor="middle" x="1041" y="-99.8" font-family="Times,serif" font-size="14.00">CommentAggregateFactory</text>
</g>
<!-- CommentAggregateFactory&#45;&gt;CommentAggregatorCacheModule -->
<g id="edge3" class="edge">
<title>CommentAggregateFactory&#45;&gt;CommentAggregatorCacheModule</title>
<path fill="none" stroke="black" d="M1041,-122.28C1041,-143.32 1041,-175 1041,-175 1041,-175 590.65,-175 590.65,-175"/>
<polygon fill="black" stroke="black" points="590.65,-171.5 580.65,-175 590.65,-178.5 590.65,-171.5"/>
</g>
<!-- CommentAggregatePersistance -->
<g id="node5" class="node">
<title>CommentAggregatePersistance</title>
<ellipse fill="#fdb462" stroke="black" cx="771" cy="-104" rx="132.56" ry="18"/>
<text text-anchor="middle" x="771" y="-99.8" font-family="Times,serif" font-size="14.00">CommentAggregatePersistance</text>
</g>
<!-- CommentAggregatePersistance&#45;&gt;CommentAggregatorCacheModule -->
<g id="edge4" class="edge">
<title>CommentAggregatePersistance&#45;&gt;CommentAggregatorCacheModule</title>
<path fill="none" stroke="black" d="M771,-122.02C771,-139.37 771,-163 771,-163 771,-163 590.8,-163 590.8,-163"/>
<polygon fill="black" stroke="black" points="590.8,-159.5 580.8,-163 590.8,-166.5 590.8,-159.5"/>
</g>
<!-- CommentAggregatorCacheService -->
<g id="node6" class="node">
<title>CommentAggregatorCacheService</title>
<ellipse fill="#fdb462" stroke="black" cx="474" cy="-104" rx="146.37" ry="18"/>
<text text-anchor="middle" x="474" y="-99.8" font-family="Times,serif" font-size="14.00">CommentAggregatorCacheService</text>
</g>
<!-- CommentAggregatorCacheService&#45;&gt;CommentAggregatorCacheModule -->
<g id="edge5" class="edge">
<title>CommentAggregatorCacheService&#45;&gt;CommentAggregatorCacheModule</title>
<path fill="none" stroke="black" d="M438.42,-121.76C438.42,-121.76 438.42,-140.81 438.42,-140.81"/>
<polygon fill="black" stroke="black" points="434.92,-140.81 438.42,-150.81 441.92,-140.81 434.92,-140.81"/>
</g>
<!-- CommentAggregatorCacheService&#45;&gt;CommentAggregatorCacheModule -->
<g id="edge6" class="edge">
<title>CommentAggregatorCacheService&#45;&gt;CommentAggregatorCacheModule</title>
<path fill="none" stroke="black" d="M509.58,-121.76C509.58,-121.76 509.58,-140.81 509.58,-140.81"/>
<polygon fill="black" stroke="black" points="506.08,-140.81 509.58,-150.81 513.08,-140.81 506.08,-140.81"/>
</g>
<!-- CommentRepo -->
<g id="node7" class="node">
<title>CommentRepo</title>
<ellipse fill="#fdb462" stroke="black" cx="240" cy="-104" rx="69.52" ry="18"/>
<text text-anchor="middle" x="240" y="-99.8" font-family="Times,serif" font-size="14.00">CommentRepo</text>
</g>
<!-- CommentRepo&#45;&gt;CommentAggregatorCacheModule -->
<g id="edge7" class="edge">
<title>CommentRepo&#45;&gt;CommentAggregatorCacheModule</title>
<path fill="none" stroke="black" d="M240,-122.02C240,-139.37 240,-163 240,-163 240,-163 357.27,-163 357.27,-163"/>
<polygon fill="black" stroke="black" points="357.27,-166.5 367.27,-163 357.27,-159.5 357.27,-166.5"/>
</g>
</g>
</svg>
