<?xml version="1.0" encoding="UTF-8" standalone="no"?>
<!DOCTYPE svg PUBLIC "-//W3C//DTD SVG 1.1//EN"
 "http://www.w3.org/Graphics/SVG/1.1/DTD/svg11.dtd">
<!-- Generated by graphviz version 2.47.0 (20210316.0004)
 -->
<!-- Title: dependencies Pages: 1 -->
<svg width="562pt" height="211pt"
 viewBox="0.00 0.00 562.00 211.00" xmlns="http://www.w3.org/2000/svg" xmlns:xlink="http://www.w3.org/1999/xlink">
<g id="graph0" class="graph" transform="scale(1 1) rotate(0) translate(4 207)">
<title>dependencies</title>
<polygon fill="white" stroke="transparent" points="-4,4 -4,-207 558,-207 558,4 -4,4"/>
<text text-anchor="start" x="256.01" y="-42.4" font-family="Times-12" font-weight="bold" font-size="14.00">Legend</text>
<polygon fill="#ffffb3" stroke="transparent" points="43,-10 43,-30 63,-30 63,-10 43,-10"/>
<text text-anchor="start" x="66.63" y="-15.4" font-family="Times-12" font-size="14.00"> &#160;Declarations</text>
<polygon fill="#8dd3c7" stroke="transparent" points="156,-10 156,-30 176,-30 176,-10 156,-10"/>
<text text-anchor="start" x="179.73" y="-15.4" font-family="Times-12" font-size="14.00"> &#160;Module</text>
<polygon fill="#80b1d3" stroke="transparent" points="242,-10 242,-30 262,-30 262,-10 242,-10"/>
<text text-anchor="start" x="265.78" y="-15.4" font-family="Times-12" font-size="14.00"> &#160;Bootstrap</text>
<polygon fill="#fdb462" stroke="transparent" points="339,-10 339,-30 359,-30 359,-10 339,-10"/>
<text text-anchor="start" x="362.67" y="-15.4" font-family="Times-12" font-size="14.00"> &#160;Providers</text>
<polygon fill="#fb8072" stroke="transparent" points="435,-10 435,-30 455,-30 455,-10 435,-10"/>
<text text-anchor="start" x="458.73" y="-15.4" font-family="Times-12" font-size="14.00"> &#160;Exports</text>
<g id="clust1" class="cluster">
<title>cluster_CloudModule</title>
<polygon fill="none" stroke="black" stroke-dasharray="1,5" points="8,-70 8,-195 546,-195 546,-70 8,-70"/>
</g>
<g id="clust6" class="cluster">
<title>cluster_CloudModule_providers</title>
<polygon fill="none" stroke="black" points="394,-78 394,-130 538,-130 538,-78 394,-78"/>
</g>
<g id="clust3" class="cluster">
<title>cluster_CloudModule_imports</title>
<polygon fill="none" stroke="black" points="16,-78 16,-130 386,-130 386,-78 16,-78"/>
</g>
<!-- AppConfigModule -->
<g id="node1" class="node">
<title>AppConfigModule</title>
<polygon fill="#8dd3c7" stroke="black" points="378.05,-122 375.05,-126 354.05,-126 351.05,-122 255.95,-122 255.95,-86 378.05,-86 378.05,-122"/>
<text text-anchor="middle" x="317" y="-99.8" font-family="Times,serif" font-size="14.00">AppConfigModule</text>
</g>
<!-- CloudModule -->
<g id="node4" class="node">
<title>CloudModule</title>
<polygon fill="#8dd3c7" stroke="black" points="301.78,-187 298.78,-191 277.78,-191 274.78,-187 208.22,-187 208.22,-151 301.78,-151 301.78,-187"/>
<text text-anchor="middle" x="255" y="-164.8" font-family="Times,serif" font-size="14.00">CloudModule</text>
</g>
<!-- AppConfigModule&#45;&gt;CloudModule -->
<g id="edge1" class="edge">
<title>AppConfigModule&#45;&gt;CloudModule</title>
<path fill="none" stroke="black" d="M278.81,-122.11C278.81,-122.11 278.81,-140.99 278.81,-140.99"/>
<polygon fill="black" stroke="black" points="275.31,-140.99 278.81,-150.99 282.31,-140.99 275.31,-140.99"/>
</g>
<!-- LogsModule -->
<g id="node2" class="node">
<title>LogsModule</title>
<polygon fill="#8dd3c7" stroke="black" points="237.55,-122 234.55,-126 213.55,-126 210.55,-122 150.45,-122 150.45,-86 237.55,-86 237.55,-122"/>
<text text-anchor="middle" x="194" y="-99.8" font-family="Times,serif" font-size="14.00">LogsModule</text>
</g>
<!-- LogsModule&#45;&gt;CloudModule -->
<g id="edge2" class="edge">
<title>LogsModule&#45;&gt;CloudModule</title>
<path fill="none" stroke="black" d="M222.94,-122.11C222.94,-122.11 222.94,-140.99 222.94,-140.99"/>
<polygon fill="black" stroke="black" points="219.44,-140.99 222.94,-150.99 226.44,-140.99 219.44,-140.99"/>
</g>
<!-- MeasureModule -->
<g id="node3" class="node">
<title>MeasureModule</title>
<polygon fill="#8dd3c7" stroke="black" points="131.74,-122 128.74,-126 107.74,-126 104.74,-122 24.26,-122 24.26,-86 131.74,-86 131.74,-122"/>
<text text-anchor="middle" x="78" y="-99.8" font-family="Times,serif" font-size="14.00">MeasureModule</text>
</g>
<!-- MeasureModule&#45;&gt;CloudModule -->
<g id="edge3" class="edge">
<title>MeasureModule&#45;&gt;CloudModule</title>
<path fill="none" stroke="black" d="M78,-122.11C78,-141.34 78,-169 78,-169 78,-169 198.03,-169 198.03,-169"/>
<polygon fill="black" stroke="black" points="198.03,-172.5 208.03,-169 198.03,-165.5 198.03,-172.5"/>
</g>
<!-- CloudService -->
<g id="node5" class="node">
<title>CloudService</title>
<ellipse fill="#fdb462" stroke="black" cx="466" cy="-104" rx="63.7" ry="18"/>
<text text-anchor="middle" x="466" y="-99.8" font-family="Times,serif" font-size="14.00">CloudService</text>
</g>
<!-- CloudService&#45;&gt;CloudModule -->
<g id="edge4" class="edge">
<title>CloudService&#45;&gt;CloudModule</title>
<path fill="none" stroke="black" d="M466,-122.11C466,-141.34 466,-169 466,-169 466,-169 311.83,-169 311.83,-169"/>
<polygon fill="black" stroke="black" points="311.83,-165.5 301.83,-169 311.83,-172.5 311.83,-165.5"/>
</g>
</g>
</svg>
